<?xml version="1.0" encoding="UTF-8"?>
<svg version="1.1" xmlns="http://www.w3.org/2000/svg" width="242" height="280">
<path d="M0 0 C79.86 0 159.72 0 242 0 C242 92.4 242 184.8 242 280 C162.14 280 82.28 280 0 280 C0 187.6 0 95.2 0 0 Z " fill="#3E3F92" transform="translate(0,0)"/>
<path d="M0 0 C79.86 0 159.72 0 242 0 C242 92.4 242 184.8 242 280 C162.14 280 82.28 280 0 280 C0 187.6 0 95.2 0 0 Z M19 17 C19 97.52 19 178.04 19 261 C79.39 261 139.78 261 202 261 C202 180.48 202 99.96 202 17 C141.61 17 81.22 17 19 17 Z " fill="#000001" transform="translate(0,0)"/>
<path d="M0 0 C54.78 0 109.56 0 166 0 C166 50.82 166 101.64 166 154 C154.78 154 143.56 154 132 154 C133 147 133 147 134.04296875 144.46484375 C136.32927252 138.57644506 135.61613368 131.38238355 134.0625 125.375 C131.38254771 122.28899434 128.85993575 121.62483815 124.9609375 120.640625 C124.31382812 120.42921875 123.66671875 120.2178125 123 120 C121.38404918 116.76809836 121.55726649 113.50445396 122 110 C123.03076135 107.16098874 124.52011265 104.62691251 126 102 C127.07361833 99.9223745 128.13555435 97.83868245 129.1875 95.75 C129.95126953 94.25726563 129.95126953 94.25726563 130.73046875 92.734375 C132.86246 88.14239385 133.13653827 84.50857009 133.125 79.4375 C133.12757813 78.30183594 133.13015625 77.16617188 133.1328125 75.99609375 C133.1347228 72.94766002 133.1347228 72.94766002 132 70 C128.31237014 67.99814379 125.14906311 67.4072767 121 68 C115.58354956 71.67012435 113.74022651 75.0549266 111.625 81.125 C106.95677166 93.33361059 100.03347011 101.6756085 90 110 C89.02933594 110.82113281 88.05867188 111.64226562 87.05859375 112.48828125 C78.98218362 119.2311696 78.98218362 119.2311696 75 121 C71.48899083 110.46697248 71.48899083 110.46697248 73 106 C76.00930255 102.59097985 79.45666501 99.83466799 83 97 C85.69473002 94.42503575 88.08688166 91.89306873 90.4375 89 C92.61892841 86.44613259 94.80779853 84.48092808 97.4140625 82.390625 C99.87608733 80.2318052 101.92410493 77.75924309 104.0390625 75.265625 C105.39273918 73.70161608 106.78654509 72.17176524 108.2109375 70.671875 C119.68002968 58.57179717 133.57072166 43.23182422 135.0546875 25.97265625 C134.99589773 23.85202524 134.59103301 22.03224426 134 20 C125.18432848 17.86286751 119.60095758 19.41585659 112 24 C98.33151968 32.81755939 81.65042365 48.89876177 75 64 C74.34 64 73.68 64 73 64 C72.71382813 64.57234375 72.42765625 65.1446875 72.1328125 65.734375 C70.421875 69.15625 68.7109375 72.578125 67 76 C66.34 76 65.68 76 65 76 C64.63841797 77.23943359 64.63841797 77.23943359 64.26953125 78.50390625 C62.78840572 82.58269809 60.80478845 86.16244926 58.6875 89.9375 C55.87581733 94.9843931 53.65244131 99.68489475 52.24609375 105.29541016 C50.2595713 113.1222304 50.2595713 113.1222304 46.37109375 115.83203125 C42.9515241 117.15370541 39.54744108 118.07649261 36 119 C33.03745104 120.04010067 30.11475745 121.17748101 27.1875 122.3125 C25.80673015 122.83140197 24.42528093 123.34850201 23.04296875 123.86328125 C22.03878906 124.23839844 21.03460938 124.61351562 20 125 C21.89583333 124.70833333 23.79166667 124.41666667 25.6875 124.125 C30.5625 123.375 35.4375 122.625 40.3125 121.875 C41.40175781 121.70742187 42.49101563 121.53984375 43.61328125 121.3671875 C44.40089844 121.24601562 45.18851563 121.12484375 46 121 C45.96519531 122.24136719 45.93039063 123.48273438 45.89453125 124.76171875 C45.86638416 126.40363226 45.83908499 128.04556046 45.8125 129.6875 C45.78736328 130.50412109 45.76222656 131.32074219 45.73632812 132.16210938 C45.67807948 136.95791431 45.87129923 140.10783637 49 144 C52.75547958 146.943484 55.29928071 147.34395507 60 147 C67.00594107 144.48007653 72.80555038 140.93988987 77.6953125 135.3203125 C78.12585938 134.88460937 78.55640625 134.44890625 79 134 C79.66 134 80.32 134 81 134 C81.33 133.01 81.66 132.02 82 131 C82.66 131 83.32 131 84 131 C84.22171875 130.4534375 84.4434375 129.906875 84.671875 129.34375 C86.41530046 126.26711684 88.75077587 123.95902213 91.25 121.5 C91.71535156 121.02691406 92.18070312 120.55382812 92.66015625 120.06640625 C100.49092061 112.2787866 100.49092061 112.2787866 105.8125 111.6875 C108 112 108 112 109 113 C109.93514775 120.8644393 108.38791225 126.41696533 103.7265625 132.72265625 C102.53560684 134.19150157 101.27040222 135.59930012 100 137 C99.1646875 137.928125 99.1646875 137.928125 98.3125 138.875 C97 140 97 140 95 140 C95 140.66 95 141.32 95 142 C93.09370402 143.58414673 91.19294416 145.05200918 89.1875 146.5 C88.64029297 146.90347656 88.09308594 147.30695313 87.52929688 147.72265625 C82.1022499 151.70906894 79.02085203 153.29237306 72.31567383 153.22705078 C71.52233737 153.22729185 70.72900091 153.22753292 69.91162395 153.2277813 C67.34331235 153.22628837 64.77529093 153.21105669 62.20703125 153.1953125 C60.62154276 153.192372 59.03605234 153.1903316 57.45056152 153.18920898 C51.57117808 153.17872248 45.69183619 153.15080008 39.8125 153.125 C26.674375 153.08375 13.53625 153.0425 0 153 C0 102.51 0 52.02 0 0 Z " fill="#010101" transform="translate(28,26)"/>
<path d="M0 0 C2.61943784 1.49682163 3.08141152 2.48976118 4.1875 5.25 C4.56797769 28.83961671 -21.69964543 51.30363531 -36.8125 67.25 C-39.22478471 69.71472569 -41.5175123 72.02308638 -44.25 74.125 C-46.98977052 76.39700482 -49.07796793 78.84991277 -51.3203125 81.59765625 C-52.8125 83.25 -52.8125 83.25 -55.6875 85.1875 C-58.23056114 87.21064684 -58.23056114 87.21064684 -58.1875 91.125 C-57.97006825 94.53995747 -57.48374261 97.89378696 -56.8125 101.25 C-53.96780821 99.9386807 -51.73422334 98.49017874 -49.38671875 96.421875 C-48.75443359 95.86886719 -48.12214844 95.31585938 -47.47070312 94.74609375 C-46.82037109 94.16988281 -46.17003906 93.59367187 -45.5 93 C-44.21239722 91.86961209 -42.92463745 90.73940296 -41.63671875 89.609375 C-41.00282227 89.04790771 -40.36892578 88.48644043 -39.71582031 87.90795898 C-38.46664305 86.81981599 -37.20057658 85.75070391 -35.91699219 84.70336914 C-28.06267926 78.27110245 -23.57015046 69.82663608 -20.25 60.3125 C-18.26740136 54.81710915 -16.15392918 50.9503234 -10.8125 48.25 C-7.10434723 47.5825325 -5.4456974 47.94779215 -2.0625 49.5625 C0.1875 51.25 0.1875 51.25 2.1875 54.25 C3.84106706 67.7861769 -1.26339575 77.82433197 -7.8125 89.25 C-9.07487731 91.77475462 -8.91106404 93.56200466 -8.875 96.375 C-8.86597656 97.28507812 -8.85695313 98.19515625 -8.84765625 99.1328125 C-8.83605469 99.83148438 -8.82445312 100.53015625 -8.8125 101.25 C-7.2346875 101.3428125 -7.2346875 101.3428125 -5.625 101.4375 C-1.13474602 102.39443937 0.33733129 103.72920336 3.1875 107.25 C7.01233147 118.72449441 2.62615368 128.93831244 -1.8293457 139.46337891 C-2.91432662 141.43504276 -4.21090508 142.6826596 -5.8125 144.25 C-6.67875 145.8278125 -6.67875 145.8278125 -7.5625 147.4375 C-10.00433105 151.88410284 -13.25179281 155.65191006 -16.8125 159.25 C-17.1425 159.25 -17.4725 159.25 -17.8125 159.25 C-18.03981216 152.31697907 -17.23252108 146.0331364 -15.8125 139.25 C-18.1225 139.25 -20.4325 139.25 -22.8125 139.25 C-22.956875 140.549375 -23.10125 141.84875 -23.25 143.1875 C-26.20436386 157.87609777 -37.17169931 174.04080745 -47.8125 184.25 C-48.50988281 184.94480469 -49.20726563 185.63960937 -49.92578125 186.35546875 C-57.56299259 193.58572389 -72.68845853 206.76282187 -83.875 206.625 C-90.11342593 206.0308642 -90.11342593 206.0308642 -92.8125 203.25 C-95.14063069 194.84115955 -93.15516996 187.56910448 -89.25 180.0625 C-84.22234245 171.21480852 -78.32287551 163.06245061 -71.8125 155.25 C-70.04914391 152.76561059 -68.35161785 150.2459 -66.65625 147.71484375 C-60.14235199 139.00664534 -47.36251153 126.76667051 -36.8125 123.25 C-36.8125 122.59 -36.8125 121.93 -36.8125 121.25 C-36.1525 121.25 -35.4925 121.25 -34.8125 121.25 C-34.3175 119.765 -34.3175 119.765 -33.8125 118.25 C-33.1525 118.25 -32.4925 118.25 -31.8125 118.25 C-31.585625 117.734375 -31.35875 117.21875 -31.125 116.6875 C-29.62428222 113.90045269 -27.83105144 111.46166052 -25.93359375 108.93359375 C-23.76591635 105.67830121 -23.70081817 102.84950073 -23.75 99.0625 C-23.75902344 98.16144531 -23.76804687 97.26039063 -23.77734375 96.33203125 C-23.78894531 95.64496094 -23.80054688 94.95789063 -23.8125 94.25 C-29.74350093 94.58445494 -32.83458303 96.35073624 -36.9375 100.4375 C-37.43636719 100.90736328 -37.93523437 101.37722656 -38.44921875 101.86132812 C-40.94464612 104.24925014 -43.24624663 106.71766429 -45.43359375 109.390625 C-48.55454296 113.1419137 -52.09757692 116.11114849 -55.8125 119.25 C-56.76125 120.11625 -57.71 120.9825 -58.6875 121.875 C-63.6474626 125.64457158 -68.87133532 128.74095227 -75.0625 129.8125 C-79.66766516 128.8705344 -82.61299717 126.60943654 -85.6875 123.125 C-88.25427202 116.56547151 -86.82180716 109.06282335 -85.8125 102.25 C-86.62589844 102.54648438 -87.43929687 102.84296875 -88.27734375 103.1484375 C-92.28505008 104.39724765 -96.2441519 105.16788539 -100.375 105.875 C-101.4877832 106.07609375 -101.4877832 106.07609375 -102.62304688 106.28125 C-106.39865857 106.94021696 -109.96285606 107.41770726 -113.8125 107.25 C-111.47515883 104.91265883 -109.63190023 104.2763102 -106.54296875 103.12109375 C-105.48916016 102.72599609 -104.43535156 102.33089844 -103.34960938 101.92382812 C-101.69155273 101.3118457 -101.69155273 101.3118457 -100 100.6875 C-98.90623047 100.27564453 -97.81246094 99.86378906 -96.68554688 99.43945312 C-92.07265789 97.72191798 -87.67365292 96.10010718 -82.8125 95.25 C-82.62494141 93.94095703 -82.62494141 93.94095703 -82.43359375 92.60546875 C-80.0891695 79.93967987 -72.90517307 68.42256119 -66.8125 57.25 C-66.1525 57.25 -65.4925 57.25 -64.8125 57.25 C-64.69777344 56.67765625 -64.58304688 56.1053125 -64.46484375 55.515625 C-63.75067644 53.03528344 -62.73942128 51.18631303 -61.375 49 C-60.94316406 48.29359375 -60.51132813 47.5871875 -60.06640625 46.859375 C-59.65261719 46.32828125 -59.23882812 45.7971875 -58.8125 45.25 C-58.1525 45.25 -57.4925 45.25 -56.8125 45.25 C-56.54308594 44.50878906 -56.27367187 43.76757812 -55.99609375 43.00390625 C-49.19365628 27.17645273 -27.65221677 6.54108851 -12.015625 -0.02734375 C-7.78279355 -1.4157725 -4.24020475 -1.13072127 0 0 Z " fill="#FCF113" transform="translate(159.8125,44.75)"/>
<path d="M0 0 C0 2.25 0 2.25 -1 5 C-3.52667787 6.67198768 -6.19936568 7.85805571 -9 9 C-7.80375 9.45375 -6.6075 9.9075 -5.375 10.375 C-4.64796875 10.6534375 -3.9209375 10.931875 -3.171875 11.21875 C-0.82557772 12.10014796 -0.82557772 12.10014796 2.375 12.875 C5 14 5 14 6.375 16.625 C6.58125 17.40875 6.7875 18.1925 7 19 C7.99 19 8.98 19 10 19 C10.66 19.33 11.32 19.66 12 20 C10.6875 22.9375 10.6875 22.9375 9 26 C8.01 26.33 7.02 26.66 6 27 C6 28.32 6 29.64 6 31 C6.99 31 7.98 31 9 31 C9 30.01 9 29.02 9 28 C10.28965176 26.62437146 11.62689293 25.29233607 13 24 C13.99 22.515 13.99 22.515 15 21 C15.66 21 16.32 21 17 21 C13.56681993 33.70276627 4.43108511 46.99760058 -5 56 C-5.69738281 56.69480469 -6.39476562 57.38960937 -7.11328125 58.10546875 C-14.75049259 65.33572389 -29.87595853 78.51282187 -41.0625 78.375 C-47.30092593 77.7808642 -47.30092593 77.7808642 -50 75 C-52.32813069 66.59115955 -50.34266996 59.31910448 -46.4375 51.8125 C-41.40984245 42.96480852 -35.51037551 34.81245061 -29 27 C-27.23664391 24.51561059 -25.53911785 21.9959 -23.84375 19.46484375 C-20.17261817 14.55703827 -15.58249643 10.69236925 -10.875 6.8125 C-10.35035156 6.37486328 -9.82570312 5.93722656 -9.28515625 5.48632812 C-2.66805821 0 -2.66805821 0 0 0 Z " fill="#FCF014" transform="translate(117,173)"/>
<path d="M0 0 C2.61943784 1.49682163 3.08141152 2.48976118 4.1875 5.25 C4.56797769 28.83961671 -21.69964543 51.30363531 -36.8125 67.25 C-39.22478471 69.71472569 -41.5175123 72.02308638 -44.25 74.125 C-47.06433818 76.45884142 -49.21017732 79.00803273 -51.48046875 81.859375 C-52.13982422 82.54773438 -52.13982422 82.54773438 -52.8125 83.25 C-53.4725 83.25 -54.1325 83.25 -54.8125 83.25 C-54.8125 82.26 -54.8125 81.27 -54.8125 80.25 C-53.49462715 79.22971135 -52.16039347 78.23028616 -50.8125 77.25 C-50.3175 75.765 -50.3175 75.765 -49.8125 74.25 C-48.15301852 73.23812105 -46.48669438 72.2373454 -44.8125 71.25 C-44.8125 70.59 -44.8125 69.93 -44.8125 69.25 C-49.7625 69.745 -49.7625 69.745 -54.8125 70.25 C-54.99680864 66.19520982 -54.70575516 63.79985343 -52.8125 60.25 C-52.8125 58.93 -52.8125 57.61 -52.8125 56.25 C-51.3275 55.755 -51.3275 55.755 -49.8125 55.25 C-48.11857851 52.84284841 -47.8125 51.3992064 -47.8125 48.4375 C-47.8125 44.75243269 -46.82880505 41.77319084 -45.8125 38.25 C-46.1425 37.59 -46.4725 36.93 -46.8125 36.25 C-47.4725 36.25 -48.1325 36.25 -48.8125 36.25 C-48.8125 37.24 -48.8125 38.23 -48.8125 39.25 C-50.2975 39.745 -50.2975 39.745 -51.8125 40.25 C-52.84735877 42.56808364 -53.8480414 44.90175298 -54.8125 47.25 C-55.8025 47.745 -55.8025 47.745 -56.8125 48.25 C-57.94600534 50.26669827 -57.94600534 50.26669827 -58.8125 52.25 C-59.4725 51.92 -60.1325 51.59 -60.8125 51.25 C-62.37522189 55.64253773 -62.37522189 55.64253773 -62.8125 60.25 C-65.3125 62.4375 -65.3125 62.4375 -67.8125 64.25 C-68.4725 63.92 -69.1325 63.59 -69.8125 63.25 C-68.8225 61.27 -67.8325 59.29 -66.8125 57.25 C-66.1525 57.25 -65.4925 57.25 -64.8125 57.25 C-64.69777344 56.67765625 -64.58304687 56.1053125 -64.46484375 55.515625 C-63.75067644 53.03528344 -62.73942128 51.18631303 -61.375 49 C-60.94316406 48.29359375 -60.51132813 47.5871875 -60.06640625 46.859375 C-59.65261719 46.32828125 -59.23882812 45.7971875 -58.8125 45.25 C-58.1525 45.25 -57.4925 45.25 -56.8125 45.25 C-56.54308594 44.50878906 -56.27367188 43.76757812 -55.99609375 43.00390625 C-49.19365628 27.17645273 -27.65221677 6.54108851 -12.015625 -0.02734375 C-7.78279355 -1.4157725 -4.24020475 -1.13072127 0 0 Z " fill="#FCF113" transform="translate(159.8125,44.75)"/>
<path d="M0 0 C60.39 0 120.78 0 183 0 C183 0.33 183 0.66 183 1 C93.405 1.495 93.405 1.495 2 2 C2 81.2 2 160.4 2 242 C61.73 242 121.46 242 183 242 C183 242.66 183 243.32 183 244 C122.61 244 62.22 244 0 244 C0 163.48 0 82.96 0 0 Z " fill="#35366D" transform="translate(19,17)"/>
<path d="M0 0 C1.61253453 1.61253453 1.24791423 3.33599043 1.3125 5.5625 C1.21901916 13.75375828 -2.6588543 19.11104448 -8 25 C-8.556875 25.61875 -9.11375 26.2375 -9.6875 26.875 C-11 28 -11 28 -13 28 C-13 28.66 -13 29.32 -13 30 C-14.90629598 31.58414673 -16.80705584 33.05200918 -18.8125 34.5 C-19.35970703 34.90347656 -19.90691406 35.30695313 -20.47070312 35.72265625 C-27.69652097 41.0303479 -27.69652097 41.0303479 -31.75 40.625 C-32.44996094 40.51414063 -33.14992188 40.40328125 -33.87109375 40.2890625 C-36.2715656 39.91450772 -36.2715656 39.91450772 -39.8125 40 C-43 40 -43 40 -46 39 C-46.639375 39.185625 -47.27875 39.37125 -47.9375 39.5625 C-50.65921624 40.13983375 -51.57414082 39.28427839 -54 38 C-55.99110401 37.61709538 -57.99100513 37.27395385 -60 37 C-60.99 33.535 -60.99 33.535 -62 30 C-61.49210937 30.3609375 -60.98421875 30.721875 -60.4609375 31.09375 C-59.42839844 31.78984375 -59.42839844 31.78984375 -58.375 32.5 C-57.70210938 32.9640625 -57.02921875 33.428125 -56.3359375 33.90625 C-52.30432229 35.79396281 -49.16181876 35.41788738 -45.03515625 33.93359375 C-39.24336989 31.01867368 -34.58491767 28.23938299 -30.3046875 23.3203125 C-29.87414062 22.88460937 -29.44359375 22.44890625 -29 22 C-28.34 22 -27.68 22 -27 22 C-26.505 20.515 -26.505 20.515 -26 19 C-25.34 19 -24.68 19 -24 19 C-23.66742188 18.18015625 -23.66742188 18.18015625 -23.328125 17.34375 C-21.58469954 14.26711684 -19.24922413 11.95902213 -16.75 9.5 C-16.28464844 9.02691406 -15.81929687 8.55382812 -15.33984375 8.06640625 C-6.32077747 -0.90296821 -6.32077747 -0.90296821 0 0 Z " fill="#090703" transform="translate(136,138)"/>
<path d="M0 0 C0.66 0.66 1.32 1.32 2 2 C1.34 2.99 0.68 3.98 0 5 C0 5.66 0 6.32 0 7 C-0.66 7 -1.32 7 -2 7 C-2 7.66 -2 8.32 -2 9 C-2.66 9 -3.32 9 -4 9 C-4 9.66 -4 10.32 -4 11 C-5.29233607 12.37310707 -6.62437146 13.71034824 -8 15 C-6.02 14.67 -4.04 14.34 -2 14 C-2.721875 14.598125 -3.44375 15.19625 -4.1875 15.8125 C-8.13904373 19.75291262 -9.83869322 24.9501543 -12 30 C-17.88262879 43.07034409 -26.24695846 51.40163739 -37.140625 60.42724609 C-38.42409427 61.51286966 -39.68347849 62.62739019 -40.921875 63.76416016 C-41.53546875 64.32280762 -42.1490625 64.88145508 -42.78125 65.45703125 C-43.32845703 65.96854736 -43.87566406 66.48006348 -44.43945312 67.00708008 C-45.21192383 67.49857544 -45.21192383 67.49857544 -46 68 C-46.99 67.67 -47.98 67.34 -49 67 C-49.39764263 65.01178687 -49.71325582 63.00720923 -50 61 C-50.226875 59.741875 -50.45375 58.48375 -50.6875 57.1875 C-50.67538367 54.02513785 -50.0754722 53.08580299 -47.9453125 50.6640625 C-45.35924661 48.35425291 -42.70722101 46.16577681 -40 44 C-37.30526998 41.42503575 -34.91311834 38.89306873 -32.5625 36 C-30.38107159 33.44613259 -28.19220147 31.48092808 -25.5859375 29.390625 C-23.13475097 27.24130874 -21.09443158 24.77963091 -18.984375 22.30078125 C-16.71265891 19.66684271 -14.35919792 17.11829774 -12 14.5625 C-7.73507582 9.89325579 -3.77929526 5.0682602 0 0 Z " fill="#070604" transform="translate(151,79)"/>
<path d="M0 0 C0 2.25 0 2.25 -1 5 C-3.52667787 6.67198768 -6.19936568 7.85805571 -9 9 C-7.75108386 9.48198463 -6.50081192 9.96045677 -5.25 10.4375 C-4.55390625 10.70433594 -3.8578125 10.97117188 -3.140625 11.24609375 C-1.01561867 12.04540737 -1.01561867 12.04540737 1.203125 12.47265625 C1.79609375 12.64667969 2.3890625 12.82070312 3 13 C4.60957264 16.21914527 4.6049097 19.51840861 4 23 C1.75 25.6875 1.75 25.6875 -1 28 C-1.721875 28.928125 -2.44375 29.85625 -3.1875 30.8125 C-3.785625 31.534375 -4.38375 32.25625 -5 33 C-5.66 33 -6.32 33 -7 33 C-7.05542969 33.56460938 -7.11085938 34.12921875 -7.16796875 34.7109375 C-8.38323087 38.05433469 -10.54840965 39.435694 -13.3125 41.625 C-14.76076172 42.78902344 -14.76076172 42.78902344 -16.23828125 43.9765625 C-18.4666929 45.60926014 -20.48643706 46.88949476 -23 48 C-22.55494888 44.97365239 -21.9366404 42.88595271 -20.4375 40.1875 C-18.52440169 35.94541244 -18.40262648 33.62964478 -19 29 C-21.33830958 26.4595774 -21.33830958 26.4595774 -24 25 C-25.74923478 27.14678813 -26.98800297 28.96925761 -28 31.5625 C-29.51744658 35.26127604 -31.04192723 36.57666552 -34.6875 38.1875 C-35.450625 38.455625 -36.21375 38.72375 -37 39 C-33.25294118 31.21764706 -33.25294118 31.21764706 -30.61328125 28.65234375 C-27.96080444 25.93564232 -26.02139956 22.71688427 -23.9140625 19.5703125 C-20.22394395 14.61501045 -15.62045187 10.72365173 -10.875 6.8125 C-10.35035156 6.37486328 -9.82570313 5.93722656 -9.28515625 5.48632812 C-2.66805821 0 -2.66805821 0 0 0 Z " fill="#F8EE1F" transform="translate(117,173)"/>
<path d="M0 0 C54.78 0 109.56 0 166 0 C166 50.82 166 101.64 166 154 C154.78 154 143.56 154 132 154 C132 153.67 132 153.34 132 153 C142.89 153 153.78 153 165 153 C165 102.84 165 52.68 165 1 C110.88 1 56.76 1 1 1 C1 50.83 1 100.66 1 152 C33.09005084 155.45132303 33.09005084 155.45132303 63 150 C63.66 150.33 64.32 150.66 65 151 C66.87379605 151.07033769 68.75001102 151.0843022 70.625 151.0625 C72.12933594 151.04896484 72.12933594 151.04896484 73.6640625 151.03515625 C74.43492188 151.02355469 75.20578125 151.01195312 76 151 C76.33 151.66 76.66 152.32 77 153 C51.59 153 26.18 153 0 153 C0 102.51 0 52.02 0 0 Z " fill="#02041D" transform="translate(28,26)"/>
<path d="M0 0 C-0.13107986 8.2580312 -2.51429221 12.00080942 -8 18 C-8.57250488 18.62986816 -9.14500977 19.25973633 -9.73486328 19.90869141 C-12.98622286 23.4733953 -16.26263656 27.01458581 -19.57421875 30.5234375 C-20.13713623 31.12075684 -20.70005371 31.71807617 -21.2800293 32.33349609 C-26.09624963 37 -26.09624963 37 -29 37 C-29 37.66 -29 38.32 -29 39 C-29.99 39 -30.98 39 -32 39 C-30.44745002 25.96624707 -18.06289091 9.36655177 -7.828125 1.06640625 C-5.15801261 -0.49115931 -2.99822365 -0.52468914 0 0 Z " fill="#0D0C03" transform="translate(138,76)"/>
<path d="M0 0 C60.39 0 120.78 0 183 0 C182.67 0.99 182.34 1.98 182 3 C123.26 3 64.52 3 4 3 C4 2.34 4 1.68 4 1 C2.68 0.67 1.36 0.34 0 0 Z " fill="#010219" transform="translate(19,261)"/>
<path d="M0 0 C0.66 0 1.32 0 2 0 C2 3.63 2 7.26 2 11 C3.65 10.67 5.3 10.34 7 10 C5.34429344 14.11931814 2.38440317 17.02311604 -0.625 20.1875 C-1.71293332 21.34700573 -2.80017095 22.50716458 -3.88671875 23.66796875 C-4.4182959 24.23435059 -4.94987305 24.80073242 -5.49755859 25.38427734 C-7.51659618 27.55554656 -9.48011294 29.77314474 -11.4375 32 C-14.88717563 35.89870366 -18.29838614 39.69106626 -22.4375 42.875 C-25.25183818 45.20884142 -27.39767732 47.75803273 -29.66796875 50.609375 C-30.32732422 51.29773438 -30.32732422 51.29773438 -31 52 C-31.66 52 -32.32 52 -33 52 C-33 51.01 -33 50.02 -33 49 C-31.68212715 47.97971135 -30.34789347 46.98028616 -29 46 C-28.67 45.01 -28.34 44.02 -28 43 C-26.34051852 41.98812105 -24.67419438 40.9873454 -23 40 C-23 39.34 -23 38.68 -23 38 C-24.98 38 -26.96 38 -29 38 C-28.360625 37.525625 -27.72125 37.05125 -27.0625 36.5625 C-20.06513503 30.70756197 -13.83219579 24.004216 -8 17 C-7.44054687 16.35289063 -6.88109375 15.70578125 -6.3046875 15.0390625 C-2.40939637 10.27815112 -0.81716981 6.0865062 0 0 Z " fill="#F6EE26" transform="translate(138,76)"/>
<path d="M0 0 C0.66 0 1.32 0 2 0 C2 50.49 2 100.98 2 153 C1.01 153 0.02 153 -1 153 C-0.67 103.83 -0.34 54.66 0 4 C-0.66 3.67 -1.32 3.34 -2 3 C-1.34 3 -0.68 3 0 3 C0 2.01 0 1.02 0 0 Z " fill="#3C3C7A" transform="translate(26,26)"/>
<path d="M0 0 C0.6875 1.8125 0.6875 1.8125 1 4 C-0.4375 5.75 -0.4375 5.75 -2 7 C-0.68 7.66 0.64 8.32 2 9 C2 11.31 2 13.62 2 16 C2.66 16 3.32 16 4 16 C4 15.34 4 14.68 4 14 C4.66 14 5.32 14 6 14 C6.144375 13.38125 6.28875 12.7625 6.4375 12.125 C7 10 7 10 8 8 C8.99 8 9.98 8 11 8 C11 7.01 11 6.02 11 5 C13.75078884 4.08307039 15.35948913 3.89113917 18.1875 3.9375 C20.0746875 3.9684375 20.0746875 3.9684375 22 4 C22 4.33 22 4.66 22 5 C20.865625 5.12375 19.73125 5.2475 18.5625 5.375 C8.83860655 7.87445149 2.99209439 19.50110593 -1.98828125 27.58203125 C-4.186171 31.31630995 -6.18819788 35.08952594 -8.02734375 39.01171875 C-9 41 -9 41 -11 44 C-11.18430864 39.94520982 -10.89325516 37.54985343 -9 34 C-9 32.68 -9 31.36 -9 30 C-8.01 29.67 -7.02 29.34 -6 29 C-4.30607851 26.59284841 -4 25.1492064 -4 22.1875 C-4 18.50243269 -3.01630505 15.52319084 -2 12 C-2.33 11.34 -2.66 10.68 -3 10 C-3.66 10 -4.32 10 -5 10 C-5 10.99 -5 11.98 -5 13 C-5.99 13.33 -6.98 13.66 -8 14 C-9.03485877 16.31808364 -10.0355414 18.65175298 -11 21 C-11.66 21.33 -12.32 21.66 -13 22 C-14.13350534 24.01669827 -14.13350534 24.01669827 -15 26 C-15.66 25.67 -16.32 25.34 -17 25 C-18.56272189 29.39253773 -18.56272189 29.39253773 -19 34 C-21.5 36.1875 -21.5 36.1875 -24 38 C-24.66 37.67 -25.32 37.34 -26 37 C-25.01 35.02 -24.02 33.04 -23 31 C-22.34 31 -21.68 31 -21 31 C-20.88527344 30.42765625 -20.77054687 29.8553125 -20.65234375 29.265625 C-19.93817644 26.78528344 -18.92692128 24.93631303 -17.5625 22.75 C-17.13066406 22.04359375 -16.69882813 21.3371875 -16.25390625 20.609375 C-15.84011719 20.07828125 -15.42632812 19.5471875 -15 19 C-14.34 19 -13.68 19 -13 19 C-12.73960938 18.2678125 -12.47921875 17.535625 -12.2109375 16.78125 C-10.9735768 13.93931188 -9.56488612 11.90579764 -7.625 9.5 C-7.00753906 8.72785156 -6.39007813 7.95570312 -5.75390625 7.16015625 C-5.17511719 6.44730469 -4.59632812 5.73445313 -4 5 C-3.195625 3.989375 -2.39125 2.97875 -1.5625 1.9375 C-1.046875 1.298125 -0.53125 0.65875 0 0 Z " fill="#F4EB2A" transform="translate(116,71)"/>
<path d="M0 0 C0.47634958 3.17566389 0.42736836 5.29959074 -1.265625 8.07421875 C-2.80018812 10.08926401 -4.39062994 12.04457368 -6 14 C-6.99 15.485 -6.99 15.485 -8 17 C-8.66 17 -9.32 17 -10 17 C-10.08314453 17.84691406 -10.08314453 17.84691406 -10.16796875 18.7109375 C-11.38323087 22.05433469 -13.54840965 23.435694 -16.3125 25.625 C-17.76076172 26.78902344 -17.76076172 26.78902344 -19.23828125 27.9765625 C-21.4666929 29.60926014 -23.48643706 30.88949476 -26 32 C-25.01449178 24.11593427 -20.22497053 17.49829331 -15.625 11.25 C-15.16867188 10.60417969 -14.71234375 9.95835937 -14.2421875 9.29296875 C-10.41403367 4.05614034 -6.87695555 0 0 0 Z " fill="#46477D" transform="translate(120,189)"/>
<path d="M0 0 C2.0625 0.4375 2.0625 0.4375 4 1 C3.34 2.65 2.68 4.3 2 6 C2.66 6.33 3.32 6.66 4 7 C3.34 7 2.68 7 2 7 C2.1140575 9.91747073 2.24080268 12.83344495 2.375 15.75 C2.4059375 16.575 2.436875 17.4 2.46875 18.25 C2.50742188 19.04921875 2.54609375 19.8484375 2.5859375 20.671875 C2.63306885 21.77160645 2.63306885 21.77160645 2.68115234 22.89355469 C3.04767746 25.31497789 3.70090758 26.92603909 5 29 C7.99738941 30.99825961 8.63347508 31.27550398 12 31.25 C12.680625 31.25515625 13.36125 31.2603125 14.0625 31.265625 C16.32416007 31.09917603 16.32416007 31.09917603 19 29 C19.99 29 20.98 29 22 29 C21.505 27.515 21.505 27.515 21 26 C21.94875 25.71125 22.8975 25.4225 23.875 25.125 C27.05211578 24.23174891 27.05211578 24.23174891 29 22 C29.99 22.33 30.98 22.66 32 23 C26.12091022 28.49567088 19.84464917 33.16150303 11.75 34.5625 C7.14483484 33.6205344 4.19950283 31.35943654 1.125 27.875 C-1.44177202 21.31547151 -0.00930716 13.81282335 1 7 C0.18660156 7.29648438 -0.62679687 7.59296875 -1.46484375 7.8984375 C-5.47255008 9.14724765 -9.4316519 9.91788539 -13.5625 10.625 C-14.30435547 10.7590625 -15.04621094 10.893125 -15.81054688 11.03125 C-19.58615857 11.69021696 -23.15035606 12.16770726 -27 12 C-24.62888141 9.62888141 -22.73460507 9.01690321 -19.58984375 7.87109375 C-18.51798828 7.47599609 -17.44613281 7.08089844 -16.34179688 6.67382812 C-14.65666992 6.0618457 -14.65666992 6.0618457 -12.9375 5.4375 C-10.71657557 4.62608164 -8.49647525 3.81240281 -6.27734375 2.99609375 C-5.28984131 2.63700928 -4.30233887 2.2779248 -3.28491211 1.90795898 C-1.07071872 1.20271968 -1.07071872 1.20271968 0 0 Z " fill="#E4DF48" transform="translate(73,140)"/>
<path d="M0 0 C26.07 0 52.14 0 79 0 C75.71517265 4.10603418 74.33284339 5.71322155 70 8 C70.50603992 5.83125748 70.99983813 4.00032373 72 2 C70.92427734 2.0721875 69.84855469 2.144375 68.74023438 2.21875 C54.98583497 3.07577428 41.27631774 3.08570661 27.5 3 C23.11458622 2.97341022 18.72921365 2.95349354 14.34375 2.9375 C12.84865906 2.92505249 12.84865906 2.92505249 11.32336426 2.91235352 C9.94416809 2.90739868 9.94416809 2.90739868 8.53710938 2.90234375 C7.73059937 2.89710693 6.92408936 2.89187012 6.09313965 2.88647461 C3.80516806 2.91806312 3.80516806 2.91806312 1 4 C0.67 2.68 0.34 1.36 0 0 Z " fill="#333566" transform="translate(28,179)"/>
<path d="M0 0 C0.33 0.66 0.66 1.32 1 2 C2.31647119 2.69937532 3.65022151 3.36729133 5 4 C6 5 6 5 6.0625 8.0625 C6.041875 9.031875 6.02125 10.00125 6 11 C5.34 11 4.68 11 4 11 C3.731875 12.134375 3.46375 13.26875 3.1875 14.4375 C2.795625 15.613125 2.40375 16.78875 2 18 C1.01 18.33 0.02 18.66 -1 19 C-1.73323796 21.01508358 -1.73323796 21.01508358 -2 23 C-3.32 21.02 -4.64 19.04 -6 17 C-6.99 17.33 -7.98 17.66 -9 18 C-9 17.34 -9 16.68 -9 16 C-10.32 16.33 -11.64 16.66 -13 17 C-11.93870191 14.20203231 -11.32460328 13.17084383 -8.625 11.75 C-5.34188503 9.56125669 -4.44532983 7.38358349 -2.89453125 3.83984375 C-2 2 -2 2 0 0 Z " fill="#FCF115" transform="translate(93,197)"/>
<path d="M0 0 C2.61943784 1.49682163 3.08141152 2.48976118 4.1875 5.25 C4.39902675 18.36465854 -4.55424042 30.64619915 -12.8125 40.25 C-13.8025 40.745 -13.8025 40.745 -14.8125 41.25 C-14.50356068 39.6243193 -14.1902305 37.99947252 -13.875 36.375 C-13.61396484 35.01761719 -13.61396484 35.01761719 -13.34765625 33.6328125 C-12.8125 31.25 -12.8125 31.25 -11.8125 29.25 C-9.25 28.625 -9.25 28.625 -6.8125 28.25 C-6.8125 26.27 -6.8125 24.29 -6.8125 22.25 C-5.8225 22.58 -4.8325 22.91 -3.8125 23.25 C-3.4825 21.93 -3.1525 20.61 -2.8125 19.25 C-2.1525 19.25 -1.4925 19.25 -0.8125 19.25 C-0.1525 13.97 0.5075 8.69 1.1875 3.25 C-4.2919485 2.46722164 -6.729018 2.13371365 -11.75 3.1875 C-12.70777344 3.38214844 -13.66554687 3.57679687 -14.65234375 3.77734375 C-15.36519531 3.93332031 -16.07804688 4.08929688 -16.8125 4.25 C-16.8125 4.91 -16.8125 5.57 -16.8125 6.25 C-18.625 7.3125 -18.625 7.3125 -20.8125 8.25 C-21.8025 7.92 -22.7925 7.59 -23.8125 7.25 C-16.9516782 1.0531287 -9.21862799 -2.4583008 0 0 Z " fill="#ECE732" transform="translate(159.8125,44.75)"/>
<path d="M0 0 C0 3.38601598 -0.91499972 5.81281168 -2 9 C-2 9.66 -2 10.32 -2 11 C-0.05925139 10.72382467 -0.05925139 10.72382467 2 10 C2.66 9.01 3.32 8.02 4 7 C4.66 7 5.32 7 6 7 C6.103125 6.21625 6.20625 5.4325 6.3125 4.625 C7 2 7 2 10 0 C12.6875 0.375 12.6875 0.375 15 1 C12.49624053 3.50823846 9.9882881 6.01154948 7.46484375 8.5 C6.63082031 9.325 5.79679687 10.15 4.9375 11 C4.10089844 11.825 3.26429687 12.65 2.40234375 13.5 C-0.04329421 15.96643022 -0.04329421 15.96643022 -2.16796875 18.73046875 C-4.00689907 21.00854661 -5.30879564 21.94274114 -8 23 C-7.690625 21.63875 -7.690625 21.63875 -7.375 20.25 C-6.9872755 16.88972103 -7.19588033 15.75924185 -9 13 C-8.01 13 -7.02 13 -6 13 C-6 11.68 -6 10.36 -6 9 C-7.98 9 -9.96 9 -12 9 C-12 6.36 -12 3.72 -12 1 C-11.67 1 -11.34 1 -11 1 C-10.67 2.98 -10.34 4.96 -10 7 C-6.05860922 5.33248852 -3.2107188 2.77289351 0 0 Z " fill="#F2E924" transform="translate(113,139)"/>
<path d="M0 0 C2.31 0 4.62 0 7 0 C6.67 6.27 6.34 12.54 6 19 C7.423125 17.30875 8.84625 15.6175 10.3125 13.875 C11.11300781 12.92367187 11.91351563 11.97234375 12.73828125 10.9921875 C14.92364722 8.10101249 16.49321178 5.28665134 18 2 C18.6875 3.625 18.6875 3.625 19 6 C16.63977036 11.71424018 13.58623519 17.63230897 8.0625 20.75 C7.051875 21.1625 6.04125 21.575 5 22 C4 21 4 21 3.88647461 19.23413086 C3.89171143 18.48526611 3.89694824 17.73640137 3.90234375 16.96484375 C3.90556641 16.15595703 3.90878906 15.34707031 3.91210938 14.51367188 C3.92048828 13.66353516 3.92886719 12.81339844 3.9375 11.9375 C3.94201172 11.08349609 3.94652344 10.22949219 3.95117188 9.34960938 C3.96299627 7.23304337 3.98093231 5.11651315 4 3 C1.14364965 5.60414693 -0.49800453 7.52761332 -1.5625 11.25 C-2.8698064 15.58135034 -4.38610952 19.77314399 -6 24 C-6.99 24 -7.98 24 -9 24 C-7.96699326 20.55664421 -6.74225761 17.41643964 -5.0625 14.25 C-2.70451786 9.6930008 -1.33568825 4.93799899 0 0 Z " fill="#5C584E" transform="translate(137,184)"/>
<path d="M0 0 C1.33123403 3.9937021 0.26957871 5.62245432 -1.25 9.5 C-1.68828125 10.6446875 -2.1265625 11.789375 -2.578125 12.96875 C-3.86571512 15.71372235 -4.80797406 17.02836798 -7 19 C-7.5775 20.051875 -8.155 21.10375 -8.75 22.1875 C-11.19183105 26.63410284 -14.43929281 30.40191006 -18 34 C-18.33 34 -18.66 34 -19 34 C-19.22731216 27.06697907 -18.42002108 20.7831364 -17 14 C-19.31 14 -21.62 14 -24 14 C-24.66 17.3 -25.32 20.6 -26 24 C-26.33 24 -26.66 24 -27 24 C-26.88601335 22.37419034 -26.75844341 20.74932843 -26.625 19.125 C-26.55539063 18.22007812 -26.48578125 17.31515625 -26.4140625 16.3828125 C-26 14 -26 14 -24 12 C-20.4375 11.8125 -20.4375 11.8125 -17 12 C-15.12175109 13.87824891 -15.60897603 17.03935276 -15.4375 19.5625 C-15.35371094 20.76003906 -15.26992187 21.95757812 -15.18359375 23.19140625 C-15.12300781 24.11824219 -15.06242188 25.04507813 -15 26 C-14.34 26 -13.68 26 -13 26 C-12.67 24.68 -12.34 23.36 -12 22 C-11.34 22 -10.68 22 -10 22 C-9.89558594 21.46246094 -9.79117188 20.92492187 -9.68359375 20.37109375 C-8.82264511 17.38483189 -7.48669882 14.82384391 -6.0625 12.0625 C-4.1883744 8.42015762 -2.51686664 4.80236973 -1 1 C-0.67 0.67 -0.34 0.34 0 0 Z " fill="#E7E14C" transform="translate(161,170)"/>
<path d="M0 0 C0.66 0.66 1.32 1.32 2 2 C1.01 3.485 1.01 3.485 0 5 C0 5.66 0 6.32 0 7 C-0.66 7 -1.32 7 -2 7 C-2 7.66 -2 8.32 -2 9 C-2.66 9 -3.32 9 -4 9 C-4 9.66 -4 10.32 -4 11 C-5.29233607 12.37310707 -6.62437146 13.71034824 -8 15 C-6.02 14.67 -4.04 14.34 -2 14 C-2.721875 14.598125 -3.44375 15.19625 -4.1875 15.8125 C-8.14597974 19.70312008 -9.92187212 24.95059141 -12 30 C-12.66 29.01 -13.32 28.02 -14 27 C-13 24 -12 21 -11 18 C-11.66 18 -12.32 18 -13 18 C-13 18.99 -13 19.98 -13 21 C-14.32 20.67 -15.64 20.34 -17 20 C-16.35933594 19.31035156 -15.71867188 18.62070313 -15.05859375 17.91015625 C-9.74531196 12.1376042 -4.69541281 6.29682844 0 0 Z " fill="#262103" transform="translate(151,79)"/>
<path d="M0 0 C1 3 1 3 0.21484375 4.76171875 C-0.20667969 5.39722656 -0.62820312 6.03273437 -1.0625 6.6875 C-1.52269531 7.38617188 -1.98289062 8.08484375 -2.45703125 8.8046875 C-4.47845046 11.68073204 -6.59166688 14.47600972 -8.765625 17.23828125 C-10.18905967 19.09151563 -10.18905967 19.09151563 -11 22 C-10.34 22 -9.68 22 -9 22 C-9 21.34 -9 20.68 -9 20 C-8.01 20.33 -7.02 20.66 -6 21 C-7.45287661 22.33927721 -8.91247259 23.67126847 -10.375 25 C-11.59316406 26.11375 -11.59316406 26.11375 -12.8359375 27.25 C-15 29 -15 29 -17 29 C-15.99309473 20.94475788 -11.08127654 14.37244406 -6.3125 8.0625 C-5.56516602 7.05606445 -5.56516602 7.05606445 -4.80273438 6.02929688 C-1.21552579 1.21552579 -1.21552579 1.21552579 0 0 Z " fill="#5C5957" transform="translate(111,192)"/>
<path d="M0 0 C-0.33 0.99 -0.66 1.98 -1 3 C-0.01 3.66 0.98 4.32 2 5 C-2.40153467 7.00863685 -6.76759434 7.8240056 -11.5 8.625 C-12.24636719 8.7590625 -12.99273437 8.893125 -13.76171875 9.03125 C-17.55235605 9.68874107 -21.13616849 10.16865931 -25 10 C-22.78035859 7.78035859 -21.19628099 7.15961366 -18.28125 6.0546875 C-17.34925781 5.70019531 -16.41726562 5.34570312 -15.45703125 4.98046875 C-14.48121094 4.61566406 -13.50539063 4.25085938 -12.5 3.875 C-11.03626953 3.31619141 -11.03626953 3.31619141 -9.54296875 2.74609375 C-2.27034684 0 -2.27034684 0 0 0 Z " fill="#DBD53C" transform="translate(71,142)"/>
<path d="M0 0 C1 3 1 3 1 5 C0.21625 5.5775 -0.5675 6.155 -1.375 6.75 C-4.41824825 9.3584985 -4.90936833 11.22473651 -6 15 C-6.99 15.495 -6.99 15.495 -8 16 C-8 16.66 -8 17.32 -8 18 C-7.34 18.33 -6.68 18.66 -6 19 C-6 18.01 -6 17.02 -6 16 C-4.68 15.67 -3.36 15.34 -2 15 C-2.34021964 18.17538332 -3.02466604 19.02276865 -5.4375 21.25 C-8 23 -8 23 -10 23 C-10 23.66 -10 24.32 -10 25 C-10.99 25 -11.98 25 -13 25 C-12.46928261 20.30035786 -11.18984302 17.09884899 -8.75 13.0625 C-7.81220703 11.50982422 -7.81220703 11.50982422 -6.85546875 9.92578125 C-4.68968916 6.51068881 -2.42591673 3.23455564 0 0 Z " fill="#2B2403" transform="translate(119,90)"/>
<path d="M0 0 C0.66 0.99 1.32 1.98 2 3 C1.34 3 0.68 3 0 3 C0.12375 4.8871875 0.12375 4.8871875 0.25 6.8125 C0.265625 9.01953125 0.265625 9.01953125 0 11 C-2 13 -2 13 -4 14 C-4 13.34 -4 12.68 -4 12 C-5.32 12.33 -6.64 12.66 -8 13 C-8 13.99 -8 14.98 -8 16 C-8.99 15.67 -9.98 15.34 -11 15 C-10.67 14.01 -10.34 13.02 -10 12 C-9.34 12 -8.68 12 -8 12 C-7.67 10.02 -7.34 8.04 -7 6 C-6.01 5.67 -5.02 5.34 -4 5 C-3.67 4.01 -3.34 3.02 -3 2 C-2.01 1.34 -1.02 0.68 0 0 Z " fill="#0C0A03" transform="translate(121,93)"/>
<path d="M0 0 C-0.99 2.97 -1.98 5.94 -3 9 C-3.66 9 -4.32 9 -5 9 C-5.2475 9.5775 -5.495 10.155 -5.75 10.75 C-7.16683317 13.3002997 -8.87627537 15.01785701 -11 17 C-10.42415568 14.61435923 -9.77772405 12.33317216 -9 10 C-8.34 10 -7.68 10 -7 10 C-6.67 8.35 -6.34 6.7 -6 5 C-7.65 5 -9.3 5 -11 5 C-11.33 5.66 -11.66 6.32 -12 7 C-11.62120265 4.80297535 -11.09789619 3.16124078 -9.9375 1.25 C-6.76923229 -0.79404368 -3.70837308 -0.182379 0 0 Z " fill="#3F408D" transform="translate(100,181)"/>
<path d="M0 0 C1.95216435 1.95216435 2.84826645 3.53199953 4 6 C4.66 5.67 5.32 5.34 6 5 C5.67 6.65 5.34 8.3 5 10 C11.30616229 10.25224649 15.62645434 9.256583 21.1875 6.3125 C24 5 24 5 27 6 C13.14927048 14.27665544 13.14927048 14.27665544 6 13 C3.0625 12.125 3.0625 12.125 1 10 C0.28145843 6.67004242 0.0701816 3.40061734 0 0 Z " fill="#E4E04B" transform="translate(66,238)"/>
<path d="M0 0 C0.33 1.32 0.66 2.64 1 4 C0.01 4.33 -0.98 4.66 -2 5 C-2 7.31 -2 9.62 -2 12 C-3.98 12.99 -3.98 12.99 -6 14 C-6 14.99 -6 15.98 -6 17 C-6.66 17 -7.32 17 -8 17 C-8.103125 17.598125 -8.20625 18.19625 -8.3125 18.8125 C-9.08876455 21.28243264 -10.07088921 22.32251235 -12 24 C-10.86657346 14.81114914 -5.48227922 7.25595779 0 0 Z " fill="#DDD64A" transform="translate(79,212)"/>
<path d="M0 0 C2.64880578 1.5136033 3.29985542 2.34498137 4.1875 5.25 C4.3125 8.5 4.3125 8.5 4.1875 11.25 C3.8575 11.25 3.5275 11.25 3.1875 11.25 C3.1875 9.6 3.1875 7.95 3.1875 6.25 C2.5275 6.25 1.8675 6.25 1.1875 6.25 C1.1875 5.26 1.1875 4.27 1.1875 3.25 C-5.1628077 1.83882051 -10.50911213 2.8707777 -16.8125 4.25 C-16.8125 4.91 -16.8125 5.57 -16.8125 6.25 C-18.625 7.3125 -18.625 7.3125 -20.8125 8.25 C-21.8025 7.92 -22.7925 7.59 -23.8125 7.25 C-16.9516782 1.0531287 -9.21862799 -2.4583008 0 0 Z " fill="#DCD73E" transform="translate(159.8125,44.75)"/>
<path d="M0 0 C0.33 0.66 0.66 1.32 1 2 C-0.59617578 5.83082186 -1.49984971 7.66656647 -5 10 C-6.06246527 11.96752828 -7.07137808 13.96587579 -8 16 C-9.32 16 -10.64 16 -12 16 C-12 16.66 -12 17.32 -12 18 C-13.65 18.33 -15.3 18.66 -17 19 C-15.71937515 17.2925002 -14.38232443 15.62626404 -13 14 C-12.34 14 -11.68 14 -11 14 C-11 13.34 -11 12.68 -11 12 C-10.34 12 -9.68 12 -9 12 C-8.67 11.01 -8.34 10.02 -8 9 C-7.34 9 -6.68 9 -6 9 C-5.7525 8.443125 -5.505 7.88625 -5.25 7.3125 C-3.78393985 4.60028873 -1.97010529 2.36412635 0 0 Z " fill="#E5DE36" transform="translate(134,154)"/>
<path d="M0 0 C1.07257764 3.30200687 0.92468991 5.67371657 0.25 9.0625 C0.01023437 10.34833984 0.01023437 10.34833984 -0.234375 11.66015625 C-1.07255016 14.22172218 -1.87834403 15.36589629 -4 17 C-4.66 17 -5.32 17 -6 17 C-6.12375 17.94875 -6.2475 18.8975 -6.375 19.875 C-7 23 -7 23 -9 25 C-8.39634834 20.54639222 -7.26697083 16.67956212 -5.625 12.5 C-5.20476562 11.4171875 -4.78453125 10.334375 -4.3515625 9.21875 C-3.02881277 6.06861771 -1.56400545 3.03654859 0 0 Z " fill="#E1DB39" transform="translate(86,115)"/>
<path d="M0 0 C1.32 0 2.64 0 4 0 C3.47150259 5.37305699 3.47150259 5.37305699 2 8 C-1.21390851 9.63355946 -4.46306413 10.37353165 -8 11 C-8.33 10.01 -8.66 9.02 -9 8 C-6.32521756 6.3372974 -4.0004856 5.00016187 -1 4 C-0.26676204 1.98491642 -0.26676204 1.98491642 0 0 Z " fill="#1C1505" transform="translate(75,132)"/>
<path d="M0 0 C3.21380606 0.86859623 4.74006126 1.66835402 6.8125 4.3125 C8.57374857 9.78164029 8.60640099 15.29825565 8 21 C7.34 21.66 6.68 22.32 6 23 C5.25492456 16.62694402 4.89650183 10.41688675 5 4 C2.525 3.01 2.525 3.01 0 2 C0 1.34 0 0.68 0 0 Z " fill="#E6E038" transform="translate(156,147)"/>
<path d="M0 0 C0.66 0.33 1.32 0.66 2 1 C2.99 1.33 3.98 1.66 5 2 C3.79157144 6.43090471 2.48331435 8.98112756 -1 12 C-1.99 11.01 -2.98 10.02 -4 9 C-2.94124926 5.59687262 -1.99097846 2.98646769 0 0 Z " fill="#FDF41B" transform="translate(114,139)"/>
<path d="M0 0 C1 3 1 3 0.1796875 4.83203125 C-7.50884583 16.50294861 -7.50884583 16.50294861 -12 18 C-10.51724605 13.62466048 -8.24005492 10.40276821 -5.4375 6.75 C-4.8197168 5.93789062 -4.8197168 5.93789062 -4.18945312 5.109375 C-1.21552579 1.21552579 -1.21552579 1.21552579 0 0 Z " fill="#605854" transform="translate(111,192)"/>
<path d="M0 0 C2.31 0 4.62 0 7 0 C6.278125 0.598125 5.55625 1.19625 4.8125 1.8125 C0.85402026 5.70312008 -0.92187212 10.95059141 -3 16 C-3.66 15.01 -4.32 14.02 -5 13 C-4.67 12.01 -4.34 11.02 -4 10 C-3.64456573 7.66993089 -3.3086247 5.33672984 -3 3 C-2.01 2.67 -1.02 2.34 0 2 C0 1.34 0 0.68 0 0 Z " fill="#191501" transform="translate(142,93)"/>
<path d="M0 0 C0.8125 1.625 0.8125 1.625 1 4 C-2.73831776 9.60747664 -2.73831776 9.60747664 -6.8125 10.875 C-7.534375 10.91625 -8.25625 10.9575 -9 11 C-9 11.66 -9 12.32 -9 13 C-10.32 12.67 -11.64 12.34 -13 12 C-11.21371169 10.32722165 -9.4214925 8.66175557 -7.625 7 C-6.86316406 6.28457031 -6.86316406 6.28457031 -6.0859375 5.5546875 C-2.2265625 2 -2.2265625 2 0 2 C0 1.34 0 0.68 0 0 Z " fill="#E9DE42" transform="translate(109,208)"/>
<path d="M0 0 C0.66 0 1.32 0 2 0 C0.37011033 4.63891675 0.37011033 4.63891675 -1.28125 6.25 C-3.78319272 8.79743259 -5.68797832 11.7440255 -7.6875 14.6875 C-8.31108398 15.59725586 -8.31108398 15.59725586 -8.94726562 16.52539062 C-9.96769264 18.01497948 -10.98423413 19.50722877 -12 21 C-12.33 20.01 -12.66 19.02 -13 18 C-12.03542166 16.64082143 -11.03145371 15.30915279 -10 14 C-9.29485154 11.85266073 -9.29485154 11.85266073 -9 10 C-8.01 10 -7.02 10 -6 10 C-5.855625 9.38125 -5.71125 8.7625 -5.5625 8.125 C-5 6 -5 6 -4 4 C-3.34 4 -2.68 4 -2 4 C-2 3.34 -2 2.68 -2 2 C-1.34 2 -0.68 2 0 2 C0 1.34 0 0.68 0 0 Z " fill="#535256" transform="translate(87,198)"/>
<path d="M0 0 C0 0.66 0 1.32 0 2 C-0.66 2 -1.32 2 -2 2 C-2.33 2.99 -2.66 3.98 -3 5 C-3.66 5 -4.32 5 -5 5 C-5.21398437 5.63421875 -5.42796875 6.2684375 -5.6484375 6.921875 C-7 9 -7 9 -9.6015625 9.828125 C-10.59929687 9.96734375 -11.59703125 10.1065625 -12.625 10.25 C-13.62789063 10.39953125 -14.63078125 10.5490625 -15.6640625 10.703125 C-16.82035156 10.85007813 -16.82035156 10.85007813 -18 11 C-14.70661407 8.4782528 -11.31366364 6.13169697 -7.875 3.8125 C-6.29332031 2.73935547 -6.29332031 2.73935547 -4.6796875 1.64453125 C-2 0 -2 0 0 0 Z " fill="#59575B" transform="translate(102,238)"/>
<path d="M0 0 C0.66 0 1.32 0 2 0 C1.71125 0.825 1.4225 1.65 1.125 2.5 C-1.28455048 9.99637929 -2.28989373 16.14065882 -2 24 C-1.01 24.33 -0.02 24.66 1 25 C1 25.33 1 25.66 1 26 C-0.65 26 -2.3 26 -4 26 C-4.42324766 16.52395508 -4.63162582 8.60159081 0 0 Z " fill="#504F5A" transform="translate(69,224)"/>
<path d="M0 0 C0 2.25 0 2.25 -1 5 C-2.87776024 6.24138326 -4.79717487 7.11091503 -6.85546875 8.01953125 C-9.81833499 9.37413858 -12.33535744 11.13475021 -15 13 C-15.66 12.67 -16.32 12.34 -17 12 C-15.06401165 10.37316948 -13.12629031 8.74848531 -11.1875 7.125 C-10.64029297 6.66480469 -10.09308594 6.20460937 -9.52929688 5.73046875 C-2.67764946 0 -2.67764946 0 0 0 Z " fill="#ECE435" transform="translate(117,173)"/>
<path d="M0 0 C2.9375 0.75 2.9375 0.75 4.9375 2.75 C5.203125 5.17578125 5.203125 5.17578125 5.1875 8.0625 C5.19265625 9.00738281 5.1978125 9.95226562 5.203125 10.92578125 C4.92564045 13.87609489 4.16803508 16.06919144 2.9375 18.75 C2.2775 18.42 1.6175 18.09 0.9375 17.75 C1.1025 17.13125 1.2675 16.5125 1.4375 15.875 C2.13825317 11.49529271 2.01484251 7.17571011 1.9375 2.75 C-0.7025 3.08 -3.3425 3.41 -6.0625 3.75 C-6.0625 3.09 -6.0625 2.43 -6.0625 1.75 C-3.0625 -0.25 -3.0625 -0.25 0 0 Z " fill="#E3DB42" transform="translate(134.0625,136.25)"/>
<path d="M0 0 C1 3 1 3 0.25 5.125 C-1 7 -1 7 -4 8 C-4.680625 8.680625 -5.36125 9.36125 -6.0625 10.0625 C-6.701875 10.701875 -7.34125 11.34125 -8 12 C-8.66 12 -9.32 12 -10 12 C-10 12.99 -10 13.98 -10 15 C-13 17 -13 17 -15.1875 16.625 C-16.0846875 16.315625 -16.0846875 16.315625 -17 16 C-16.02417969 15.18015625 -15.04835938 14.3603125 -14.04296875 13.515625 C-12.757625 12.42730474 -11.47247911 11.33875077 -10.1875 10.25 C-9.54490234 9.71117187 -8.90230469 9.17234375 -8.24023438 8.6171875 C-5.10669271 5.95448889 -2.26969571 3.47626257 0 0 Z " fill="#E2DB3F" transform="translate(131,122)"/>
<path d="M0 0 C0.33 0 0.66 0 1 0 C1.22786458 1.98567708 1.45572917 3.97135417 1.68359375 5.95703125 C1.97170735 8.19396393 1.97170735 8.19396393 3 11 C2.0625 13.6875 2.0625 13.6875 1 16 C0.34 16 -0.32 16 -1 16 C-1.103125 16.721875 -1.20625 17.44375 -1.3125 18.1875 C-2.05986932 21.24491993 -3.28045189 23.38329635 -5 26 C-5.66 25.67 -6.32 25.34 -7 25 C-6.49339844 24.05253906 -6.49339844 24.05253906 -5.9765625 23.0859375 C-2.19768084 15.50633093 -0.8211077 8.39490704 0 0 Z " fill="#201C01" transform="translate(162,102)"/>
<path d="M0 0 C1.32 0 2.64 0 4 0 C5.25348607 2.95106435 5.01044806 3.97406463 3.78515625 7.015625 C2.93244141 8.61664063 2.93244141 8.61664063 2.0625 10.25 C1.49660156 11.32765625 0.93070313 12.4053125 0.34765625 13.515625 C-0.09707031 14.33546875 -0.54179687 15.1553125 -1 16 C-2.15665526 12.21677341 -1.49106871 10.63447999 0 7 C-0.33 6.01 -0.66 5.02 -1 4 C-0.5625 1.8125 -0.5625 1.8125 0 0 Z " fill="#EDE535" transform="translate(156,112)"/>
<path d="M0 0 C0.50789063 0.34933594 1.01578125 0.69867188 1.5390625 1.05859375 C5.69405656 3.80524712 8.90884805 5.6181636 14 6 C14.33 6.99 14.66 7.98 15 9 C12 10 12 10 10.1875 9.125 C9.465625 8.75375 8.74375 8.3825 8 8 C6.00889599 7.61709538 4.00899487 7.27395385 2 7 C1.34 4.69 0.68 2.38 0 0 Z " fill="#070402" transform="translate(74,168)"/>
<path d="M0 0 C1 1 1 1 1.0625 4.0625 C1.041875 5.031875 1.02125 6.00125 1 7 C0.278125 6.46375 -0.44375 5.9275 -1.1875 5.375 C-3.91930939 3.63245328 -3.91930939 3.63245328 -6.625 4.875 C-7.40875 5.24625 -8.1925 5.6175 -9 6 C-9.99 5.67 -10.98 5.34 -12 5 C-4.76210998 -0.84037235 -4.76210998 -0.84037235 0 0 Z " fill="#272106" transform="translate(136,138)"/>
<path d="M0 0 C0 3.17370278 -0.30933342 4.3794668 -2 7 C-5.23162551 9.30830393 -8.1189265 9.17641243 -12 9 C-12 6.36 -12 3.72 -12 1 C-11.67 1 -11.34 1 -11 1 C-10.67 2.98 -10.34 4.96 -10 7 C-6.05860922 5.33248852 -3.2107188 2.77289351 0 0 Z " fill="#DCD630" transform="translate(113,139)"/>
<path d="M0 0 C0 3.86239516 -1.48857616 6.47334438 -3 10 C-3 10.99 -3 11.98 -3 13 C-5.5 15.1875 -5.5 15.1875 -8 17 C-8.66 16.67 -9.32 16.34 -10 16 C-9.01 14.02 -8.02 12.04 -7 10 C-6.34 10 -5.68 10 -5 10 C-4.9175 9.46375 -4.835 8.9275 -4.75 8.375 C-3.73623902 5.1647569 -1.92839451 2.73707608 0 0 Z " fill="#D7D23D" transform="translate(100,92)"/>
<path d="M0 0 C0.33 0.66 0.66 1.32 1 2 C-3.00288832 7.1889293 -7.01046129 12.08617036 -13 15 C-13.66 14.67 -14.32 14.34 -15 14 C-14.39671875 13.48050781 -13.7934375 12.96101562 -13.171875 12.42578125 C-9.0521527 8.8309913 -5.31376331 5.37416757 -2 1 C-1.34 0.67 -0.68 0.34 0 0 Z " fill="#625E53" transform="translate(117,223)"/>
<path d="M0 0 C2.02884006 5.48050302 -0.72571075 10.94288477 -3 16 C-5.75 18.75 -5.75 18.75 -8 20 C-8 16.60977035 -7.2492477 15.21685994 -5.6875 12.25 C-3.60840478 8.22175301 -1.73007253 4.18859664 0 0 Z " fill="#DCD63D" transform="translate(141,102)"/>
<path d="M0 0 C0.66 0 1.32 0 2 0 C2.18755891 9.75306315 2.18755891 9.75306315 -1.5 13.625 C-2.325 14.40875 -3.15 15.1925 -4 16 C-4.33 16.66 -4.66 17.32 -5 18 C-5.99 17.67 -6.98 17.34 -8 17 C-7.59007812 16.52691406 -7.18015625 16.05382812 -6.7578125 15.56640625 C-2.6826707 10.56509586 -0.85735014 6.38578034 0 0 Z " fill="#DDD737" transform="translate(138,76)"/>
<path d="M0 0 C1.8871875 0.0309375 1.8871875 0.0309375 3.8125 0.0625 C3.8125 0.3925 3.8125 0.7225 3.8125 1.0625 C2.678125 1.18625 1.54375 1.31 0.375 1.4375 C-5.89350293 2.91771894 -9.34416646 8.24053986 -13.1875 13.0625 C-13.5175 12.0725 -13.8475 11.0825 -14.1875 10.0625 C-13.5275 10.0625 -12.8675 10.0625 -12.1875 10.0625 C-11.9709375 9.134375 -11.9709375 9.134375 -11.75 8.1875 C-11.1875 6.0625 -11.1875 6.0625 -10.1875 4.0625 C-9.1975 4.0625 -8.2075 4.0625 -7.1875 4.0625 C-7.1875 3.0725 -7.1875 2.0825 -7.1875 1.0625 C-4.43671116 0.14557039 -2.82801087 -0.04636083 0 0 Z " fill="#ECE53D" transform="translate(134.1875,74.9375)"/>
<path d="M0 0 C0.99 0.33 1.98 0.66 3 1 C2.2575 2.175625 2.2575 2.175625 1.5 3.375 C-0.43415935 8.04921842 -0.26602877 12.01442381 0 17 C1.32 17.33 2.64 17.66 4 18 C2.02 18 0.04 18 -2 18 C-2 13.38 -2 8.76 -2 4 C-2.66 3.67 -3.32 3.34 -4 3 C-2.68 2.67 -1.36 2.34 0 2 C0 1.34 0 0.68 0 0 Z " fill="#E9E337" transform="translate(151,129)"/>
<path d="M0 0 C0.99 0.99 1.98 1.98 3 3 C0.03 2.67 -2.94 2.34 -6 2 C-6.226875 2.804375 -6.45375 3.60875 -6.6875 4.4375 C-7.3371875 5.7059375 -7.3371875 5.7059375 -8 7 C-10.625 7.8125 -10.625 7.8125 -13 8 C-10.63787593 1.98732054 -6.47261319 -0.98496288 0 0 Z " fill="#DED73A" transform="translate(155,93)"/>
<path d="M0 0 C1.32 0.33 2.64 0.66 4 1 C3.34 2.65 2.68 4.3 2 6 C2.66 6.33 3.32 6.66 4 7 C3.34 7 2.68 7 2 7 C1.67 8.32 1.34 9.64 1 11 C0.67 9.68 0.34 8.36 0 7 C-1.65 6.67 -3.3 6.34 -5 6 C-3.35 4.02 -1.7 2.04 0 0 Z " fill="#E7DF29" transform="translate(73,140)"/>
<path d="M0 0 C0.99 0.66 1.98 1.32 3 2 C-0.3 4.97 -3.6 7.94 -7 11 C-7.99 10.67 -8.98 10.34 -10 10 C-10 9.34 -10 8.68 -10 8 C-9.01 7.67 -8.02 7.34 -7 7 C-5.29220027 5.37550757 -3.62449243 3.70779973 -2 2 C-1.34 1.34 -0.68 0.68 0 0 Z " fill="#231C01" transform="translate(112,136)"/>
<path d="M0 0 C1 3 1 3 1 5 C0.21625 5.5775 -0.5675 6.155 -1.375 6.75 C-4.41824825 9.3584985 -4.90936833 11.22473651 -6 15 C-6.99 15.495 -6.99 15.495 -8 16 C-8.33 16.99 -8.66 17.98 -9 19 C-9.66 19 -10.32 19 -11 19 C-9.65731932 15.408811 -8.05199725 12.21283008 -6.0625 8.9375 C-5.55847656 8.10089844 -5.05445312 7.26429687 -4.53515625 6.40234375 C-3.1158476 4.18128824 -1.61220138 2.08383044 0 0 Z " fill="#3D3905" transform="translate(119,90)"/>
<path d="M0 0 C0.99 0 1.98 0 3 0 C1.45333439 3.46388652 -0.61390092 6.18623827 -3 9.125 C-3.70125 9.99382812 -4.4025 10.86265625 -5.125 11.7578125 C-7 14 -7 14 -9 16 C-8.67 13.69 -8.34 11.38 -8 9 C-6.68 8.67 -5.36 8.34 -4 8 C-3.896875 7.4225 -3.79375 6.845 -3.6875 6.25 C-2.88350079 3.61872985 -1.86932485 2.01311907 0 0 Z " fill="#251F02" transform="translate(112,72)"/>
<path d="M0 0 C0.33 0.99 0.66 1.98 1 3 C0.43410156 3.47050781 -0.13179687 3.94101563 -0.71484375 4.42578125 C-1.44832031 5.04839844 -2.18179688 5.67101562 -2.9375 6.3125 C-4.03384766 7.23482422 -4.03384766 7.23482422 -5.15234375 8.17578125 C-7.23820366 9.95975519 -7.23820366 9.95975519 -8 13 C-8.99 13.495 -8.99 13.495 -10 14 C-10.65772428 17.02934491 -10.65772428 17.02934491 -11 20 C-11.33 20 -11.66 20 -12 20 C-12.58858731 16.76276978 -12.86254231 15.11131334 -12 12 C-9.64974169 9.35170169 -7.13929711 7.19900693 -4.3828125 4.98046875 C-1.82430678 3.04556361 -1.82430678 3.04556361 0 0 Z " fill="#373205" transform="translate(113,120)"/>
<path d="M0 0 C1 3 1 3 -0.3125 6.625 C-2 10 -2 10 -4 11 C-5.13350534 13.01669827 -5.13350534 13.01669827 -6 15 C-6.66 14.34 -7.32 13.68 -8 13 C-7.34 11.35 -6.68 9.7 -6 8 C-5.34 8 -4.68 8 -4 8 C-3.566875 6.8553125 -3.566875 6.8553125 -3.125 5.6875 C-2 3 -2 3 0 0 Z " fill="#EDE534" transform="translate(107,82)"/>
<path d="M0 0 C-13.44874715 8.03644647 -13.44874715 8.03644647 -21 7 C-21 6.67 -21 6.34 -21 6 C-19.02 6 -17.04 6 -15 6 C-15 5.34 -15 4.68 -15 4 C-14.13375 3.731875 -13.2675 3.46375 -12.375 3.1875 C-8.95997487 2.07949211 -8.95997487 2.07949211 -5.8125 0.3125 C-3 -1 -3 -1 0 0 Z " fill="#DDD85B" transform="translate(93,244)"/>
<path d="M0 0 C0.33 0.66 0.66 1.32 1 2 C-0.07353741 3.4655595 -1.1592554 4.92220152 -2.25 6.375 C-2.85328125 7.18710938 -3.4565625 7.99921875 -4.078125 8.8359375 C-5.9918998 10.99087904 -7.30988598 12.02979495 -10 13 C-12.25 12.625 -12.25 12.625 -14 12 C-12.6696875 11.1646875 -12.6696875 11.1646875 -11.3125 10.3125 C-8.94901127 8.75360318 -7.29875982 7.29875982 -5.25 5.25 C-4.13625 4.13625 -4.13625 4.13625 -3 3 C-2.34 3 -1.68 3 -1 3 C-0.67 2.01 -0.34 1.02 0 0 Z " fill="#312E03" transform="translate(110,157)"/>
<path d="M0 0 C-1.56126332 3.83219177 -4.02866925 6.17361222 -7 9 C-7.556875 9.598125 -8.11375 10.19625 -8.6875 10.8125 C-10 12 -10 12 -12 12 C-12 11.01 -12 10.02 -12 9 C-10.68212715 7.97971135 -9.34789347 6.98028616 -8 6 C-7.67 5.01 -7.34 4.02 -7 3 C-2.66666667 0 -2.66666667 0 0 0 Z " fill="#EDE539" transform="translate(117,116)"/>
<path d="M0 0 C1.32 0 2.64 0 4 0 C4.64165788 5.26159459 3.20577001 7.68592849 0.09375 11.6796875 C-0.2671875 12.11539063 -0.628125 12.55109375 -1 13 C-2 10 -2 10 -1.22265625 7.95703125 C-0.83980469 7.24933594 -0.45695312 6.54164063 -0.0625 5.8125 C0.31777344 5.09707031 0.69804688 4.38164062 1.08984375 3.64453125 C1.39019531 3.10183594 1.69054687 2.55914062 2 2 C0.68 2.33 -0.64 2.66 -2 3 C-1.34 2.01 -0.68 1.02 0 0 Z " fill="#5C5546" transform="translate(116,189)"/>
<path d="M0 0 C0.99 0.33 1.98 0.66 3 1 C2.51917969 1.34675781 2.03835937 1.69351563 1.54296875 2.05078125 C-0.75358112 4.95199235 -0.52026199 7.54171147 -0.6875 11.1875 C-0.75324219 12.45980469 -0.81898437 13.73210937 -0.88671875 15.04296875 C-0.94279297 16.50669922 -0.94279297 16.50669922 -1 18 C-1.33 18 -1.66 18 -2 18 C-3.42868053 12.46386294 -3.81596196 6.44788588 -2 1 C-1.34 0.67 -0.68 0.34 0 0 Z " fill="#F4EF3C" transform="translate(102,128)"/>
<path d="M0 0 C0 1.98 0 3.96 0 6 C-0.5775 5.690625 -1.155 5.38125 -1.75 5.0625 C-3.84294184 4.07416636 -5.74535275 3.4831387 -8 3 C-8 3.66 -8 4.32 -8 5 C-9.32 5.33 -10.64 5.66 -12 6 C-7.99402755 0.79223581 -6.57420945 -0.1429176 0 0 Z " fill="#312C06" transform="translate(138,76)"/>
<path d="M0 0 C0.99 0.33 1.98 0.66 3 1 C-1.62755583 4.08503722 -5.86945823 6.19022694 -11.5 5.6875 C-12.325 5.460625 -13.15 5.23375 -14 5 C-10.52478207 2.68318805 -8.09103994 2.57418104 -4 2 C-3.2575 1.62875 -2.515 1.2575 -1.75 0.875 C-0.88375 0.441875 -0.88375 0.441875 0 0 Z " fill="#161202" transform="translate(59,144)"/>
<path d="M0 0 C0 3.19633438 -0.33810135 4.34096216 -2 7 C-5.42857143 10 -5.42857143 10 -8 10 C-8 10.99 -8 11.98 -8 13 C-9.32 12.67 -10.64 12.34 -12 12 C-8.04 8.04 -4.08 4.08 0 0 Z " fill="#E1DA3C" transform="translate(129,58)"/>
<path d="M0 0 C0.33 0 0.66 0 1 0 C1.2756877 5.42185809 1.34110491 8.50235878 -2 13 C-2.99 14.485 -2.99 14.485 -4 16 C-4.66 16 -5.32 16 -6 16 C-4.27933894 10.55123997 -2.15294651 5.28830549 0 0 Z " fill="#363005" transform="translate(163,56)"/>
<path d="M0 0 C0 0.99 0 1.98 0 3 C-1.56116819 3.33951619 -3.12401338 3.67132544 -4.6875 4 C-5.99267578 4.2784375 -5.99267578 4.2784375 -7.32421875 4.5625 C-9.93712964 4.98972047 -12.35813038 5.07616201 -15 5 C-12.62383533 2.62383533 -10.64650479 1.95931819 -7.5 0.8125 C-6.5203125 0.44769531 -5.540625 0.08289063 -4.53125 -0.29296875 C-2 -1 -2 -1 0 0 Z " fill="#C4BE5B" transform="translate(61,147)"/>
<path d="M0 0 C0.66 0 1.32 0 2 0 C2.8125 1.6875 2.8125 1.6875 3 4 C0.5625 6.75 0.5625 6.75 -2 9 C-2.66 8.67 -3.32 8.34 -4 8 C-3.40312566 4.65750371 -2.26396123 2.53563658 0 0 Z " fill="#F7EC14" transform="translate(137,87)"/>
<path d="M0 0 C0.99 0.33 1.98 0.66 3 1 C-1.105466 4.97185616 -4.02968261 7.70876501 -10 8 C-9.01 7.67 -8.02 7.34 -7 7 C-7.33 6.01 -7.66 5.02 -8 4 C-6.576875 3.566875 -6.576875 3.566875 -5.125 3.125 C-1.94788422 2.23174891 -1.94788422 2.23174891 0 0 Z " fill="#EAE439" transform="translate(102,162)"/>
<path d="M0 0 C0.33 0.99 0.66 1.98 1 3 C-0.1796875 4.75390625 -0.1796875 4.75390625 -1.875 6.5625 C-4.22310453 9.08137361 -4.22310453 9.08137361 -6 12 C-7.32 11.67 -8.64 11.34 -10 11 C-6.7 7.37 -3.4 3.74 0 0 Z " fill="#373106" transform="translate(133,100)"/>
<path d="M0 0 C0.66 0.99 1.32 1.98 2 3 C1.34 3 0.68 3 0 3 C-0.33 3.99 -0.66 4.98 -1 6 C-3.21701147 7.58965571 -5.57862473 8.72327486 -8 10 C-7.34 8.35 -6.68 6.7 -6 5 C-5.34 5 -4.68 5 -4 5 C-3.67 4.01 -3.34 3.02 -3 2 C-2.01 1.34 -1.02 0.68 0 0 Z " fill="#020404" transform="translate(121,93)"/>
<path d="M0 0 C0 2.85062324 -0.35451633 4.43418582 -1.3125 7.0625 C-1.55613281 7.75472656 -1.79976562 8.44695312 -2.05078125 9.16015625 C-3 11 -3 11 -6 13 C-5.69106068 11.3743193 -5.3777305 9.74947252 -5.0625 8.125 C-4.88847656 7.22007813 -4.71445313 6.31515625 -4.53515625 5.3828125 C-4 3 -4 3 -3 1 C-2.01 0.67 -1.02 0.34 0 0 Z " fill="#F3EB26" transform="translate(151,73)"/>
<path d="M0 0 C0.99 0.33 1.98 0.66 3 1 C1.40112446 2.48488441 -0.20428905 3.96273145 -1.8125 5.4375 C-2.70582031 6.26121094 -3.59914063 7.08492187 -4.51953125 7.93359375 C-7 10 -7 10 -10 11 C-9.03049703 7.73894457 -8.44238139 6.29492093 -5.5625 4.375 C-4.716875 3.92125 -3.87125 3.4675 -3 3 C-1.24850835 1.41754725 -1.24850835 1.41754725 0 0 Z " fill="#E4E054" transform="translate(109,228)"/>
<path d="M0 0 C0.33 0 0.66 0 1 0 C1 3.96 1 7.92 1 12 C1.66 12 2.32 12 3 12 C1.25 15.875 1.25 15.875 -1 17 C-1.12036664 11.22240116 -0.8320582 5.72040011 0 0 Z " fill="#DAD463" transform="translate(143,187)"/>
<path d="M0 0 C0.90457722 2.47510086 1.16843185 3.59237953 0.14453125 6.0703125 C-0.29503906 6.74835938 -0.73460937 7.42640625 -1.1875 8.125 C-1.61417969 8.80820313 -2.04085937 9.49140625 -2.48046875 10.1953125 C-4.15678371 12.18620585 -5.61635587 13.00979238 -8 14 C-5.66840232 9.14250484 -2.98828911 4.48243367 0 0 Z " fill="#696851" transform="translate(155,186)"/>
<path d="M0 0 C2.31 0.66 4.62 1.32 7 2 C5.60667426 5.36720387 4.0210714 6.9859524 1 9 C1.33 7.02 1.66 5.04 2 3 C0.68 2.67 -0.64 2.34 -2 2 C-1.34 1.34 -0.68 0.68 0 0 Z " fill="#E7DE37" transform="translate(121,103)"/>
<path d="M0 0 C0.33 1.32 0.66 2.64 1 4 C0.34 4 -0.32 4 -1 4 C-1.144375 4.61875 -1.28875 5.2375 -1.4375 5.875 C-2 8 -2 8 -3 10 C-3.66 10 -4.32 10 -5 10 C-5.28875 10.639375 -5.5775 11.27875 -5.875 11.9375 C-7 14 -7 14 -9 15 C-7.38325319 11.57053707 -5.42402323 8.43736948 -3.375 5.25 C-2.74335937 4.26515625 -2.11171875 3.2803125 -1.4609375 2.265625 C-0.97882813 1.51796875 -0.49671875 0.7703125 0 0 Z " fill="#625F50" transform="translate(127,208)"/>
<path d="M0 0 C0.625 1.8125 0.625 1.8125 1 4 C0.01 5.485 0.01 5.485 -1 7 C-1.66 7 -2.32 7 -3 7 C-3.33 7.99 -3.66 8.98 -4 10 C-6.0625 10.6875 -6.0625 10.6875 -8 11 C-8 10.34 -8 9.68 -8 9 C-7.34 9 -6.68 9 -6 9 C-5.7525 8.443125 -5.505 7.88625 -5.25 7.3125 C-3.78393985 4.60028873 -1.97010529 2.36412635 0 0 Z " fill="#E1DA4E" transform="translate(118,197)"/>
<path d="M0 0 C0.33 0 0.66 0 1 0 C0.67 4.29 0.34 8.58 0 13 C-1.32 12.67 -2.64 12.34 -4 12 C-3.52494322 10.18641846 -3.04483958 8.37415821 -2.5625 6.5625 C-2.29566406 5.55316406 -2.02882812 4.54382813 -1.75390625 3.50390625 C-1 1 -1 1 0 0 Z " fill="#434087" transform="translate(137,190)"/>
<path d="M0 0 C-0.4793247 4.31392226 -1.7457985 6.16569547 -5 9 C-5.66 8.34 -6.32 7.68 -7 7 C-6.67 6.34 -6.34 5.68 -6 5 C-5.34 5 -4.68 5 -4 5 C-4 3.68 -4 2.36 -4 1 C-2 0 -2 0 0 0 Z " fill="#404090" transform="translate(118,191)"/>
<path d="M0 0 C0 3.96130371 -1.34877125 4.82914401 -4 7.6875 C-4.7425 8.49574219 -5.485 9.30398437 -6.25 10.13671875 C-6.8275 10.75160156 -7.405 11.36648437 -8 12 C-8.33 11.01 -8.66 10.02 -9 9 C-8.34 9 -7.68 9 -7 9 C-6.690625 8.05125 -6.38125 7.1025 -6.0625 6.125 C-5 3 -5 3 -4 1 C-1.9375 0.375 -1.9375 0.375 0 0 Z " fill="#EBE73B" transform="translate(144,86)"/>
<path d="M0 0 C1.99954746 -0.04254356 4.00041636 -0.04080783 6 0 C7 1 7 1 7.09765625 2.84765625 C7.04882812 5.92382812 7.04882812 5.92382812 7 9 C6.01 9.495 6.01 9.495 5 10 C5.33 7.36 5.66 4.72 6 2 C4.8553125 2.495 4.8553125 2.495 3.6875 3 C1 4 1 4 -2 4 C-1.34 2.68 -0.68 1.36 0 0 Z " fill="#DBD549" transform="translate(114,187)"/>
<path d="M0 0 C1.32 0.33 2.64 0.66 4 1 C2.55527654 4.80881639 0.67396929 6.29742886 -3 8 C-3.99 7.67 -4.98 7.34 -6 7 C-5.34 6.01 -4.68 5.02 -4 4 C-2.68 4 -1.36 4 0 4 C0 2.68 0 1.36 0 0 Z " fill="#F4ED3B" transform="translate(97,235)"/>
<path d="M0 0 C1 3 1 3 0.0625 5.1875 C-0.4634375 6.0846875 -0.4634375 6.0846875 -1 7 C-1.99 7 -2.98 7 -4 7 C-4 7.66 -4 8.32 -4 9 C-4.99 8.67 -5.98 8.34 -7 8 C-4.69 5.36 -2.38 2.72 0 0 Z " fill="#D8D232" transform="translate(129,94)"/>
<path d="M0 0 C2.97 0.33 5.94 0.66 9 1 C10.60355101 4.50776784 11.22036864 7.14354879 11 11 C9.5268006 8.25002779 8.77595125 6.10380501 8 3 C5.36 2.34 2.72 1.68 0 1 C0 0.67 0 0.34 0 0 Z " fill="#1F1C01" transform="translate(154,43)"/>
<path d="M0 0 C0.5775 0.226875 1.155 0.45375 1.75 0.6875 C-0.56944788 4.16667182 -2.51369964 4.98179766 -6.25 6.6875 C-6.91 6.0275 -7.57 5.3675 -8.25 4.6875 C-7.59 4.6875 -6.93 4.6875 -6.25 4.6875 C-6.25 4.0275 -6.25 3.3675 -6.25 2.6875 C-3.02697842 -0.42041367 -3.02697842 -0.42041367 0 0 Z " fill="#434085" transform="translate(108.25,235.3125)"/>
<path d="M0 0 C0.66 0 1.32 0 2 0 C0.50829734 4.9723422 -1.60457417 9.41845739 -4 14 C-4.33 14 -4.66 14 -5 14 C-5 12.35 -5 10.7 -5 9 C-4.34 9 -3.68 9 -3 9 C-2.80083984 8.15115234 -2.80083984 8.15115234 -2.59765625 7.28515625 C-2.33275391 6.18494141 -2.33275391 6.18494141 -2.0625 5.0625 C-1.88847656 4.33160156 -1.71445313 3.60070312 -1.53515625 2.84765625 C-1 1 -1 1 0 0 Z " fill="#EDE652" transform="translate(132,194)"/>
<path d="M0 0 C0.33 1.32 0.66 2.64 1 4 C-1.3125 6.75 -1.3125 6.75 -4 9 C-4.66 9 -5.32 9 -6 9 C-6 9.66 -6 10.32 -6 11 C-6.66 10.67 -7.32 10.34 -8 10 C-5.36 6.7 -2.72 3.4 0 0 Z " fill="#D6D138" transform="translate(116,71)"/>
<path d="M0 0 C0.66 0 1.32 0 2 0 C1.731875 0.66 1.46375 1.32 1.1875 2 C-0.25705047 5.64939067 -1.62871178 9.32245433 -3 13 C-3.66 12.67 -4.32 12.34 -5 12 C-5 10.68 -5 9.36 -5 8 C-4.34 7.67 -3.68 7.34 -3 7 C-1.94647157 4.69034152 -0.94280904 2.3570226 0 0 Z " fill="#EAE348" transform="translate(97,208)"/>
<path d="M0 0 C0 0.99 0 1.98 0 3 C-0.66 3 -1.32 3 -2 3 C-2.2475 3.5775 -2.495 4.155 -2.75 4.75 C-4.16683317 7.3002997 -5.87627537 9.01785701 -8 11 C-7.42415568 8.61435923 -6.77772405 6.33317216 -6 4 C-5.34 4 -4.68 4 -4 4 C-4 3.34 -4 2.68 -4 2 C-2.68 1.34 -1.36 0.68 0 0 Z " fill="#5D5955" transform="translate(97,187)"/>
<path d="M0 0 C0.66 0 1.32 0 2 0 C2 5.28 2 10.56 2 16 C1.67 16 1.34 16 1 16 C0.63913128 13.52163716 0.28601843 11.04260213 -0.0625 8.5625 C-0.16626953 7.85544922 -0.27003906 7.14839844 -0.37695312 6.41992188 C-0.62689163 4.61864093 -0.81801314 2.80940959 -1 1 C-0.67 0.67 -0.34 0.34 0 0 Z " fill="#3E3F84" transform="translate(139,187)"/>
<path d="M0 0 C0.99 0.33 1.98 0.66 3 1 C3 3 3 3 1.625 4.625 C0 6 0 6 -2 6 C-2 6.66 -2 7.32 -2 8 C-2.66 8 -3.32 8 -4 8 C-3.50168276 4.31245243 -2.89932357 2.39509338 0 0 Z " fill="#1D1902" transform="translate(125,160)"/>
<path d="M0 0 C0.66 1.32 1.32 2.64 2 4 C0.71937515 5.7074998 -0.61767557 7.37373596 -2 9 C-2.66 9 -3.32 9 -4 9 C-3.67 7.35 -3.34 5.7 -3 4 C-2.01 3.67 -1.02 3.34 0 3 C0 2.01 0 1.02 0 0 Z " fill="#575247" transform="translate(98,212)"/>
<path d="M0 0 C1 3 1 3 0.07421875 5.0078125 C-0.38339844 5.70648438 -0.84101562 6.40515625 -1.3125 7.125 C-1.76238281 7.82882813 -2.21226563 8.53265625 -2.67578125 9.2578125 C-4 11 -4 11 -6 12 C-5.57405412 10.55903414 -5.13373367 9.12231288 -4.6875 7.6875 C-4.44386719 6.88699219 -4.20023437 6.08648437 -3.94921875 5.26171875 C-2.95817977 2.90035427 -1.91925057 1.66120007 0 0 Z " fill="#575167" transform="translate(111,192)"/>
<path d="M0 0 C0.33 0.66 0.66 1.32 1 2 C-3 8.57142857 -3 8.57142857 -7 10 C-2.87804878 1.43902439 -2.87804878 1.43902439 0 0 Z " fill="#D6D052" transform="translate(87,202)"/>
<path d="M0 0 C0.99333946 3.12868143 1.06587381 3.83011491 -0.1875 7.0625 C-1.9183668 9.86769792 -3.23492634 11.28374738 -6 13 C-5.71382813 12.43796875 -5.42765625 11.8759375 -5.1328125 11.296875 C-3.98584069 8.97129077 -2.92160206 6.62229799 -1.875 4.25 C-1.52179688 3.45078125 -1.16859375 2.6515625 -0.8046875 1.828125 C-0.53914063 1.22484375 -0.27359375 0.6215625 0 0 Z " fill="#F2E732" transform="translate(90,197)"/>
<path d="M0 0 C0.33 0.66 0.66 1.32 1 2 C0.34 2 -0.32 2 -1 2 C-1.268125 2.9075 -1.53625 3.815 -1.8125 4.75 C-2.89576294 7.71471963 -3.98359457 9.6169754 -6 12 C-5.67 9.69 -5.34 7.38 -5 5 C-4.34 5 -3.68 5 -3 5 C-3 3.68 -3 2.36 -3 1 C-2.01 0.67 -1.02 0.34 0 0 Z " fill="#302903" transform="translate(94,100)"/>
<path d="M0 0 C0.66 0 1.32 0 2 0 C0.18690997 3.77727089 -1.9073259 7.37269822 -4 11 C-4.64453125 9.234375 -4.64453125 9.234375 -5 7 C-4.07421875 5.078125 -4.07421875 5.078125 -2.6875 3.25 C-2.23761719 2.63640625 -1.78773437 2.0228125 -1.32421875 1.390625 C-0.88722656 0.93171875 -0.45023437 0.4728125 0 0 Z " fill="#EAE254" transform="translate(125,208)"/>
<path d="M0 0 C0.33 0.66 0.66 1.32 1 2 C-1.48952921 4.66735273 -3.63408134 6.55746343 -7 8 C-7.33 6.68 -7.66 5.36 -8 4 C-7.01 4 -6.02 4 -5 4 C-2.32601524 2.06102121 -2.32601524 2.06102121 0 0 Z " fill="#5C5866" transform="translate(149,198)"/>
<path d="M0 0 C0.66 0.33 1.32 0.66 2 1 C-0.62652025 4.59930552 -2.93963643 7.07666989 -7 9 C-7.66 8.67 -8.32 8.34 -9 8 C-6.03 5.36 -3.06 2.72 0 0 Z " fill="#DAD448" transform="translate(109,177)"/>
<path d="M0 0 C0.66 0 1.32 0 2 0 C1.39009109 3.55780196 0.4216319 6.6828589 -1 10 C-1.66 9.01 -2.32 8.02 -3 7 C-2.1654738 4.49642139 -1.20628008 2.33214148 0 0 Z " fill="#261E01" transform="translate(140,99)"/>
<path d="M0 0 C3 3 3 3 3.29296875 6.13671875 C3.25816406 7.30847656 3.22335938 8.48023437 3.1875 9.6875 C3.16042969 10.86699219 3.13335937 12.04648438 3.10546875 13.26171875 C3.07066406 14.16535156 3.03585938 15.06898437 3 16 C2.67 16 2.34 16 2 16 C1.34 10.72 0.68 5.44 0 0 Z " fill="#E0D743" transform="translate(159,96)"/>
<path d="M0 0 C0.66 0.33 1.32 0.66 2 1 C0.02 3.97 -1.96 6.94 -4 10 C-4.33 9.01 -4.66 8.02 -5 7 C-2 2 -2 2 0 0 Z " fill="#E2DB54" transform="translate(107,194)"/>
<path d="M0 0 C1 3 1 3 0.22265625 5.04296875 C-0.16019531 5.75066406 -0.54304687 6.45835937 -0.9375 7.1875 C-1.31777344 7.90292969 -1.69804687 8.61835938 -2.08984375 9.35546875 C-2.54037109 10.16951172 -2.54037109 10.16951172 -3 11 C-4.3968009 6.80959731 -2.86445675 4.87233324 -1 1 C-0.67 0.67 -0.34 0.34 0 0 Z " fill="#F3EC43" transform="translate(161,170)"/>
<path d="M0 0 C2.64 1.65 5.28 3.3 8 5 C5 7 5 7 2.8125 6.625 C2.214375 6.41875 1.61625 6.2125 1 6 C0.67 4.02 0.34 2.04 0 0 Z " fill="#3C3708" transform="translate(74,168)"/>
<path d="M0 0 C0.99 0.33 1.98 0.66 3 1 C2.01 2.485 2.01 2.485 1 4 C1.66 4 2.32 4 3 4 C2.67 4.99 2.34 5.98 2 7 C1.01 6.67 0.02 6.34 -1 6 C-1.8125 4.0625 -1.8125 4.0625 -2 2 C-1.34 1.34 -0.68 0.68 0 0 Z " fill="#FAEF10" transform="translate(112,144)"/>
<path d="M0 0 C1.24153433 3.724603 0.47452539 4.47752269 -1 8 C-1.37593066 9.9924325 -1.71979545 11.9918674 -2 14 C-2.33 14 -2.66 14 -3 14 C-3.29341888 8.32723489 -3.00559652 5.00932754 0 0 Z " fill="#443B09" transform="translate(153,130)"/>
<path d="M0 0 C-3.465 2.97 -3.465 2.97 -7 6 C-6.67 4.02 -6.34 2.04 -6 0 C-3 -1 -3 -1 0 0 Z " fill="#302904" transform="translate(130,125)"/>
<path d="M0 0 C0.33 0.66 0.66 1.32 1 2 C0.22265625 3.7265625 0.22265625 3.7265625 -0.9375 5.625 C-1.618125 6.73875 -2.29875 7.8525 -3 9 C-3.66 8.01 -4.32 7.02 -5 6 C-2.25 1.125 -2.25 1.125 0 0 Z " fill="#262103" transform="translate(137,110)"/>
<path d="M0 0 C0.33 0.66 0.66 1.32 1 2 C0.01 3.485 0.01 3.485 -1 5 C-1.66 5 -2.32 5 -3 5 C-3 5.66 -3 6.32 -3 7 C-4.98 7.33 -6.96 7.66 -9 8 C-7.88625 7.13375 -7.88625 7.13375 -6.75 6.25 C-4.33912357 4.27746474 -2.15957299 2.23955718 0 0 Z " fill="#DCD537" transform="translate(118,106)"/>
<path d="M0 0 C0.66 0 1.32 0 2 0 C2.1953125 6.0546875 2.1953125 6.0546875 2 8 C1.34 8.66 0.68 9.32 0 10 C-1.2380014 6.42355152 -0.74926071 3.66305234 0 0 Z " fill="#F2EE34" transform="translate(161,51)"/>
<path d="M0 0 C1.32 0.66 2.64 1.32 4 2 C3.01 3.485 3.01 3.485 2 5 C-1.125 5.1875 -1.125 5.1875 -4 5 C-2.68 3.35 -1.36 1.7 0 0 Z " fill="#E0D62E" transform="translate(134,53)"/>
<path d="M0 0 C-1.65 1.65 -3.3 3.3 -5 5 C-5.66 4.01 -6.32 3.02 -7 2 C-5.26578631 -1.46842738 -3.40984787 -1.13661596 0 0 Z " fill="#E8DD4A" transform="translate(120,220)"/>
<path d="M0 0 C0.33 0.66 0.66 1.32 1 2 C-1.45454545 7.72727273 -1.45454545 7.72727273 -4 9 C-4.66 8.34 -5.32 7.68 -6 7 C-4.02 4.69 -2.04 2.38 0 0 Z " fill="#DED639" transform="translate(134,154)"/>
<path d="M0 0 C0.33 0 0.66 0 1 0 C1.37096774 5.56451613 1.37096774 5.56451613 -0.4375 7.6875 C-0.953125 8.120625 -1.46875 8.55375 -2 9 C-2.33 9.99 -2.66 10.98 -3 12 C-3.66 11.67 -4.32 11.34 -5 11 C-3.35 7.37 -1.7 3.74 0 0 Z " fill="#302904" transform="translate(160,116)"/>
<path d="M0 0 C1.32 0.33 2.64 0.66 4 1 C0.535 3.97 0.535 3.97 -3 7 C-2 3 -2 3 0 0 Z " fill="#E4DD3F" transform="translate(117,146)"/>
<path d="M0 0 C0.99 0.33 1.98 0.66 3 1 C2.34 2.32 1.68 3.64 1 5 C0.01 5 -0.98 5 -2 5 C-2 3.68 -2 2.36 -2 1 C-1.34 0.67 -0.68 0.34 0 0 Z " fill="#F6F31C" transform="translate(121,105)"/>
<path d="M0 0 C-2.97 2.475 -2.97 2.475 -6 5 C-6.66 4.67 -7.32 4.34 -8 4 C-7.1875 2.0625 -7.1875 2.0625 -6 0 C-3 -1 -3 -1 0 0 Z " fill="#EBE42E" transform="translate(98,104)"/>
<path d="M0 0 C0.33 1.32 0.66 2.64 1 4 C1.66 4 2.32 4 3 4 C3 4.66 3 5.32 3 6 C2.34 6 1.68 6 1 6 C0.67 7.32 0.34 8.64 0 10 C-1.125 2.25 -1.125 2.25 0 0 Z " fill="#F6EF34" transform="translate(68,234)"/>
<path d="M0 0 C-1.28965176 1.37562854 -2.62689293 2.70766393 -4 4 C-4.66 4 -5.32 4 -6 4 C-6 2.68 -6 1.36 -6 0 C-3.50907189 -1.24546405 -2.58919267 -0.7767578 0 0 Z " fill="#F4EC39" transform="translate(114,190)"/>
<path d="M0 0 C1 4 1 4 1 8 C-0.98 8.99 -0.98 8.99 -3 10 C-2.01 6.7 -1.02 3.4 0 0 Z " fill="#362F07" transform="translate(163,168)"/>
<path d="M0 0 C1.3921875 0.3403125 1.3921875 0.3403125 2.8125 0.6875 C2.4825 1.3475 2.1525 2.0075 1.8125 2.6875 C-0.8275 2.6875 -3.4675 2.6875 -6.1875 2.6875 C-4.14987265 -0.14253799 -3.59070275 -0.35202968 0 0 Z " fill="#F6ED47" transform="translate(64.1875,146.3125)"/>
<path d="M0 0 C0.33 0.99 0.66 1.98 1 3 C-0.4375 5.6875 -0.4375 5.6875 -2 8 C-3.32 7.67 -4.64 7.34 -6 7 C-4.02 4.69 -2.04 2.38 0 0 Z " fill="#363305" transform="translate(140,92)"/>
<path d="M0 0 C0.99 0.33 1.98 0.66 3 1 C0.36 2.98 -2.28 4.96 -5 7 C-4.67 5.68 -4.34 4.36 -4 3 C-3.01 2.67 -2.02 2.34 -1 2 C-0.67 1.34 -0.34 0.68 0 0 Z " fill="#645E4E" transform="translate(103,180)"/>
<path d="M0 0 C2.375 0.6875 2.375 0.6875 5 2 C6.3125 4.625 6.3125 4.625 7 7 C6.34 6.67 5.68 6.34 5 6 C5 5.34 5 4.68 5 4 C2.525 3.01 2.525 3.01 0 2 C0 1.34 0 0.68 0 0 Z " fill="#D4CD40" transform="translate(156,147)"/>
<path d="M0 0 C0.66 0 1.32 0 2 0 C2 0.99 2 1.98 2 3 C1.01 3.495 1.01 3.495 0 4 C-0.65772428 7.02934491 -0.65772428 7.02934491 -1 10 C-1.33 10 -1.66 10 -2 10 C-2.1953125 3.9453125 -2.1953125 3.9453125 -2 2 C-1.34 1.34 -0.68 0.68 0 0 Z " fill="#433901" transform="translate(103,130)"/>
<path d="M0 0 C-1.04874998 2.62187494 -1.64931313 3.79371361 -4.125 5.25 C-4.74375 5.4975 -5.3625 5.745 -6 6 C-6 5.01 -6 4.02 -6 3 C-2.66666667 0 -2.66666667 0 0 0 Z " fill="#DAD33B" transform="translate(111,122)"/>
<path d="M0 0 C0.66 0 1.32 0 2 0 C2.33 1.65 2.66 3.3 3 5 C2.01 5.66 1.02 6.32 0 7 C-1.125 2.25 -1.125 2.25 0 0 Z " fill="#1D1607" transform="translate(121,96)"/>
<path d="M0 0 C1 3 1 3 1 5 C-0.375 6.625 -0.375 6.625 -2 8 C-2.66 8 -3.32 8 -4 8 C-2.87548273 5.0280615 -1.77706209 2.66559313 0 0 Z " fill="#262204" transform="translate(119,90)"/>
<path d="M0 0 C0.66 0.33 1.32 0.66 2 1 C-0.475 4.465 -0.475 4.465 -3 8 C-3.33 7.01 -3.66 6.02 -4 5 C-3.34 4.01 -2.68 3.02 -2 2 C-1.34 2 -0.68 2 0 2 C0 1.34 0 0.68 0 0 Z " fill="#E9E543" transform="translate(153,73)"/>
</svg>
